<?xml version="1.0" encoding="utf-8"?>
<!-- Generator: Adobe Illustrator 16.0.0, SVG Export Plug-In . SVG Version: 6.00 Build 0)  -->
<!DOCTYPE svg PUBLIC "-//W3C//DTD SVG 1.1//EN" "http://www.w3.org/Graphics/SVG/1.1/DTD/svg11.dtd">
<svg version="1.1" id="Layer_1" xmlns="http://www.w3.org/2000/svg" xmlns:xlink="http://www.w3.org/1999/xlink" x="0px" y="0px"
	 width="1920px" height="900px" viewBox="0 0 1920 900" enable-background="new 0 0 1920 900" xml:space="preserve">
<g>
	<path fill="#FDE6DC" d="M55.001,37.352c-18.515,0-36.854,0.753-55.001,2.207v0.447C18.146,38.552,36.488,37.8,55.001,37.8
		c375.953,0,681.816,305.862,681.816,681.816c0,62.421-8.439,122.906-24.225,180.384h0.464
		c15.771-57.479,24.207-117.965,24.207-180.384C737.265,343.416,431.2,37.352,55.001,37.352z"/>
	<path fill="#FDE6DC" d="M55.001,99.359c-18.532,0-36.877,0.82-55.001,2.42v0.447c18.124-1.602,36.469-2.421,55.001-2.421
		c341.76,0,619.801,278.046,619.801,619.811c0,56.663-7.65,111.57-21.959,163.753h0.464c14.298-52.186,21.94-107.092,21.94-163.753
		C675.247,377.606,397.007,99.359,55.001,99.359z"/>
	<path fill="#FDE6DC" d="M55.001,161.371c-18.559,0-36.903,0.919-55.001,2.697v0.447c18.098-1.779,36.442-2.699,55.001-2.699
		c307.573,0,557.802,250.229,557.802,557.8c0,45.016-5.368,88.799-15.483,130.753h0.459c10.107-41.955,15.472-85.738,15.472-130.753
		C613.248,411.799,362.82,161.371,55.001,161.371z"/>
	<path fill="#FDE6DC" d="M55.001,223.376c-18.588,0-36.938,1.036-55.001,3.036v0.45c18.062-2.003,36.413-3.039,55.001-3.039
		c273.383,0,495.797,222.412,495.797,495.793c0,45.242-6.112,89.08-17.521,130.753h0.463
		c11.397-41.676,17.504-85.513,17.504-130.753C551.244,445.989,328.63,223.376,55.001,223.376z"/>
	<path fill="#FDE6DC" d="M55.001,285.389c-18.628,0-36.984,1.181-55.001,3.468v0.449c18.016-2.289,36.373-3.472,55.001-3.472
		c239.186,0,433.778,194.594,433.778,433.78c0,55.247-10.389,108.112-29.303,156.753h0.479
		c18.896-48.646,29.271-101.51,29.271-156.753C489.227,480.182,294.435,285.389,55.001,285.389z"/>
	<path fill="#FDE6DC" d="M55.001,347.404c-18.685,0-37.049,1.392-55.001,4.062v0.45c17.952-2.674,36.315-4.064,55.001-4.064
		c204.992,0,371.766,166.772,371.766,371.766c0,55.974-12.436,109.097-34.685,156.753h0.492
		c22.222-47.666,34.64-100.786,34.64-156.753C427.214,514.379,260.24,347.404,55.001,347.404z"/>
	<path fill="#FDE6DC" d="M346.947,824.462c11.81-32.765,18.261-68.062,18.261-104.846c0-171.046-139.157-310.202-310.205-310.202
		c-18.766,0-37.146,1.678-55.001,4.886v0.454c17.854-3.213,36.234-4.894,55.001-4.894c170.801,0,309.758,138.956,309.758,309.756
		c0,36.29-6.289,71.136-17.812,103.521L346.947,824.462L346.947,824.462z"/>
	<path fill="#FDE6DC" d="M55.001,471.421c-18.896,0-37.304,2.133-55.001,6.151v0.456c17.695-4.025,36.104-6.162,55.001-6.162
		c136.615,0,247.759,111.142,247.759,247.75c0,25.555-3.899,50.212-11.118,73.421h0.467c7.205-23.213,11.099-47.868,11.099-73.421
		C303.206,582.76,191.863,471.421,55.001,471.421z"/>
	<path fill="#FDE6DC" d="M55.001,533.425c-19.14,0-37.61,2.905-55.001,8.294v0.467c17.388-5.401,35.859-8.313,55.001-8.313
		c102.42,0,185.746,83.325,185.746,185.745c0,26.067-5.416,50.888-15.152,73.421h0.488c9.711-22.541,15.109-47.359,15.109-73.421
		C241.194,616.95,157.667,533.425,55.001,533.425z"/>
	<path fill="#FDE6DC" d="M55.001,595.431c-19.739,0-38.412,4.637-55.001,12.866v0.499c16.578-8.263,35.255-12.919,55.001-12.919
		c68.229,0,123.735,55.509,123.735,123.737c0,27.467-9,52.868-24.198,73.421h0.552c15.137-20.581,24.094-45.973,24.094-73.421
		C179.184,651.14,123.476,595.431,55.001,595.431z"/>
</g>
<g>
	<path opacity="0.09" fill="#616161" enable-background="new    " d="M554.439,808.063c-29.038-39.722-52.706-62.356-110.301-69.372
		c-17.81-2.169-37.177-2.708-57.563-1.616c-15.576,0.833-30.117,0.463-43.214-1.132l-0.019-0.003
		c-68.013-8.284-94.479-48.812-127.977-100.101c-19.259-29.486-39.171-59.99-68.468-85.877
		c-34.627-30.598-75.72-48.426-125.63-54.505C13.996,494.572,6.909,494.099,0,494.01v290.94l424.421,89.808
		C510.17,898.576,574.443,835.426,554.439,808.063z"/>
	<path fill="#FF6761" d="M539.643,813.933c-23.73-36.955-69.855-66.682-157.967-61.965
		c-233.11,12.477-173.23-217.595-372.464-241.86C6.02,509.719,2.991,509.443,0,509.25v298.688
		c125.446-11.249,255.554,58.232,356.001,75.773c43.436,7.305,107.562,0.122,149.687-14.896
		C531.198,857.824,550.633,839.041,539.643,813.933z"/>
	<path opacity="0.5" fill="#ED605A" enable-background="new    " d="M18.584,662.476c-6.24-0.76-12.426-1.242-18.584-1.47v146.929
		c103.591-9.29,210.354,36.467,300.979,62.574C214.983,786.408,184.249,682.654,18.584,662.476z"/>
</g>
<g opacity="0.5">
	<circle fill="#006ABD" cx="1649.644" cy="687.188" r="4.927"/>
	<circle fill="#006ABD" cx="1670.25" cy="687.188" r="4.928"/>
	<circle fill="#006ABD" cx="1690.855" cy="687.188" r="4.927"/>
	<circle fill="#006ABD" cx="1711.461" cy="687.188" r="4.928"/>
	<circle fill="#006ABD" cx="1732.067" cy="687.188" r="4.928"/>
	<circle fill="#006ABD" cx="1752.672" cy="687.188" r="4.928"/>
	<circle fill="#006ABD" cx="1773.278" cy="687.188" r="4.928"/>
	<circle fill="#006ABD" cx="1649.644" cy="705.105" r="4.927"/>
	<circle fill="#006ABD" cx="1670.25" cy="705.105" r="4.928"/>
	<circle fill="#006ABD" cx="1690.855" cy="705.105" r="4.927"/>
	<circle fill="#006ABD" cx="1711.461" cy="705.105" r="4.928"/>
	<circle fill="#006ABD" cx="1732.067" cy="705.105" r="4.928"/>
	<circle fill="#006ABD" cx="1752.672" cy="705.105" r="4.928"/>
	<circle fill="#006ABD" cx="1773.278" cy="705.105" r="4.928"/>
	<circle fill="#006ABD" cx="1649.644" cy="723.023" r="4.927"/>
	<circle fill="#006ABD" cx="1670.25" cy="723.023" r="4.928"/>
	<circle fill="#006ABD" cx="1690.855" cy="723.023" r="4.927"/>
	<circle fill="#006ABD" cx="1711.461" cy="723.023" r="4.928"/>
	<circle fill="#006ABD" cx="1732.067" cy="723.023" r="4.928"/>
	<circle fill="#006ABD" cx="1752.672" cy="723.023" r="4.928"/>
	<circle fill="#006ABD" cx="1773.278" cy="723.023" r="4.928"/>
	<circle fill="#006ABD" cx="1649.644" cy="740.941" r="4.927"/>
	<circle fill="#006ABD" cx="1670.25" cy="740.941" r="4.928"/>
	<circle fill="#006ABD" cx="1690.855" cy="740.941" r="4.927"/>
	<circle fill="#006ABD" cx="1711.461" cy="740.941" r="4.928"/>
	<circle fill="#006ABD" cx="1732.067" cy="740.941" r="4.928"/>
	<circle fill="#006ABD" cx="1752.672" cy="740.941" r="4.928"/>
	<circle fill="#006ABD" cx="1773.278" cy="740.941" r="4.928"/>
	<circle fill="#006ABD" cx="1649.644" cy="758.859" r="4.927"/>
	<circle fill="#006ABD" cx="1670.25" cy="758.859" r="4.928"/>
	<circle fill="#006ABD" cx="1690.855" cy="758.859" r="4.927"/>
	<circle fill="#006ABD" cx="1711.461" cy="758.859" r="4.928"/>
	<circle fill="#006ABD" cx="1732.067" cy="758.859" r="4.928"/>
	<circle fill="#006ABD" cx="1752.672" cy="758.859" r="4.928"/>
	<circle fill="#006ABD" cx="1773.278" cy="758.859" r="4.928"/>
	<circle fill="#006ABD" cx="1649.644" cy="776.777" r="4.927"/>
	<circle fill="#006ABD" cx="1670.25" cy="776.777" r="4.928"/>
	<circle fill="#006ABD" cx="1690.855" cy="776.777" r="4.927"/>
	<circle fill="#006ABD" cx="1711.461" cy="776.777" r="4.928"/>
	<circle fill="#006ABD" cx="1732.067" cy="776.777" r="4.928"/>
	<circle fill="#006ABD" cx="1752.672" cy="776.777" r="4.928"/>
	<circle fill="#006ABD" cx="1773.278" cy="776.777" r="4.928"/>
	<circle fill="#006ABD" cx="1649.644" cy="794.695" r="4.927"/>
	<circle fill="#006ABD" cx="1670.25" cy="794.695" r="4.928"/>
	<circle fill="#006ABD" cx="1690.855" cy="794.695" r="4.927"/>
	<circle fill="#006ABD" cx="1711.461" cy="794.695" r="4.928"/>
	<circle fill="#006ABD" cx="1732.067" cy="794.695" r="4.928"/>
	<circle fill="#006ABD" cx="1752.672" cy="794.695" r="4.928"/>
	<circle fill="#006ABD" cx="1773.278" cy="794.695" r="4.928"/>
	<circle fill="#006ABD" cx="1649.644" cy="812.613" r="4.927"/>
	<circle fill="#006ABD" cx="1670.25" cy="812.613" r="4.928"/>
	<circle fill="#006ABD" cx="1690.855" cy="812.613" r="4.927"/>
	<circle fill="#006ABD" cx="1711.461" cy="812.613" r="4.928"/>
	<circle fill="#006ABD" cx="1732.067" cy="812.613" r="4.928"/>
	<circle fill="#006ABD" cx="1752.672" cy="812.613" r="4.928"/>
	<circle fill="#006ABD" cx="1773.278" cy="812.613" r="4.928"/>
</g>
<g>
	<path opacity="0.7" fill="#FF6761" enable-background="new    " d="M1323.022,839.882c-5.156,0.088-9.424-4.033-9.514-9.188
		c-0.088-5.156,4.032-9.423,9.188-9.514c5.156-0.088,9.422,4.033,9.514,9.188C1332.297,835.523,1328.176,839.791,1323.022,839.882z
		 M1322.772,825.515c-2.768,0.048-4.979,2.338-4.93,5.103c0.049,2.768,2.34,4.979,5.104,4.93c2.764-0.05,4.978-2.338,4.93-5.104
		C1327.825,827.677,1325.534,825.468,1322.772,825.515z"/>
	<path opacity="0.7" fill="#006ABD" enable-background="new    " d="M761.297,159.634c-5.156,0.089-9.425-4.032-9.515-9.187
		c-0.088-5.156,4.033-9.423,9.188-9.514c5.156-0.088,9.422,4.032,9.514,9.188C770.573,155.276,766.45,159.544,761.297,159.634z
		 M761.047,145.268c-2.769,0.048-4.979,2.338-4.931,5.103c0.05,2.768,2.341,4.979,5.104,4.929c2.764-0.049,4.977-2.338,4.93-5.103
		C766.102,147.43,763.811,145.219,761.047,145.268z"/>
	<path opacity="0.7" fill="#FF6C38" enable-background="new    " d="M1675.684,486.261c-16.021,0.277-29.283-12.529-29.562-28.551
		c-0.276-16.021,12.529-29.28,28.55-29.562c16.021-0.278,29.282,12.529,29.561,28.551
		C1704.512,472.722,1691.704,485.984,1675.684,486.261z M1674.906,441.62c-8.594,0.148-15.465,7.264-15.315,15.859
		c0.149,8.594,7.264,15.463,15.856,15.312c8.597-0.147,15.47-7.261,15.318-15.854
		C1690.616,448.342,1683.502,441.469,1674.906,441.62z"/>
	<path opacity="0.5" fill="#006ABD" enable-background="new    " d="M1478.034,730.095l0.002,16.501h-16.504
		c-4.055,0-7.336,3.282-7.332,7.334c-0.002,4.054,3.281,7.336,7.332,7.333l16.498-0.002l0.004,16.502
		c-0.002,4.054,3.281,7.337,7.337,7.337c4.047-0.001,7.329-3.283,7.332-7.334v-16.504l16.502,0.003
		c4.047,0.001,7.334-3.286,7.332-7.333c0-4.055-3.281-7.336-7.337-7.336l-16.5-0.004v-16.496c0.002-4.053-3.278-7.334-7.334-7.334
		C1481.317,722.76,1478.031,726.046,1478.034,730.095z"/>
	<path fill="#FF6761" d="M1699.889,577.802l-13.961,13.961l-13.963-13.961c-0.974-0.974-2.547-0.974-3.521,0
		c-0.973,0.973-0.973,2.549,0,3.521l13.961,13.96l-13.961,13.962c-0.973,0.973-0.973,2.549,0,3.521c0.974,0.972,2.547,0.971,3.521,0
		l13.963-13.962l13.961,13.963c0.971,0.971,2.549,0.971,3.52-0.001c0.974-0.973,0.974-2.549,0-3.521l-13.961-13.963l13.961-13.959
		c0.974-0.972,0.974-2.548,0-3.521C1702.438,576.827,1700.86,576.828,1699.889,577.802z"/>
	<path opacity="0.3" fill="#FF6761" enable-background="new    " d="M347.262,204.893v14.777l-14.779,0.001
		c-1.028,0-1.862,0.833-1.862,1.863s0.834,1.864,1.862,1.863l14.779-0.001v14.78c0,1.028,0.834,1.862,1.863,1.863
		c1.028-0.001,1.862-0.835,1.862-1.863v-14.779l14.781,0.001c1.027,0,1.863-0.836,1.863-1.864c0-1.03-0.836-1.863-1.865-1.863
		l-14.779-0.001v-14.777c0-1.029-0.834-1.864-1.862-1.863C348.096,203.028,347.262,203.864,347.262,204.893z"/>
</g>
<g>
	
		<linearGradient id="SVGID_1_" gradientUnits="userSpaceOnUse" x1="836.8406" y1="101.5906" x2="1025.1057" y2="101.5906" gradientTransform="matrix(1 0 0 -1 24.9448 891.3589)">
		<stop  offset="0" style="stop-color:#FF6761"/>
		<stop  offset="1" style="stop-color:#FFFFFF"/>
	</linearGradient>
	<path fill="url(#SVGID_1_)" d="M868.278,883.901L868.278,883.901c-3.588,0-6.492-2.904-6.492-6.491v-29.861
		c0-3.585,2.904-6.493,6.488-6.493h23.375c3.582,0,6.492-2.906,6.492-6.491v-23.369c0-3.589,2.908-6.493,6.492-6.493l23.373-0.003
		c3.584,0,6.489-2.903,6.489-6.491v-23.37c0-3.589,2.906-6.491,6.492-6.491h23.371c3.586,0,6.49-2.909,6.49-6.493v-23.369
		c0-3.588,2.908-6.491,6.494-6.496h23.368c3.589,0,6.496-2.904,6.496-6.491v-23.37c0-3.584,2.902-6.491,6.49-6.491h29.863
		c3.586,0,6.49,2.903,6.49,6.491l0,0c0,3.585-2.904,6.492-6.49,6.492h-16.879c-3.588,0-6.49,2.907-6.49,6.491v23.369
		c0,3.589-2.91,6.493-6.494,6.493l-23.373,0.003c-3.584,0-6.492,2.904-6.492,6.493v23.369c0,3.588-2.903,6.49-6.489,6.49h-23.371
		c-3.586,0-6.492,2.909-6.492,6.493v23.369c0,3.589-2.906,6.492-6.492,6.496h-23.373c-3.584,0-6.492,2.904-6.492,6.491v23.371
		c0,3.584-2.901,6.49-6.489,6.49h-23.371c-3.588,0-6.492,2.907-6.492,6.491v16.88C874.77,880.997,871.862,883.901,868.278,883.901z"
		/>
</g>
<g>
	
		<linearGradient id="SVGID_2_" gradientUnits="userSpaceOnUse" x1="991.8792" y1="732.3943" x2="1088.7717" y2="732.3943" gradientTransform="matrix(1 0 0 -1 24.9448 891.3589)">
		<stop  offset="0" style="stop-color:#006ABD"/>
		<stop  offset="1" style="stop-color:#FFFFFF"/>
	</linearGradient>
	<path fill="url(#SVGID_2_)" d="M1020.168,207.411L1020.168,207.411c-1.847,0-3.345-1.497-3.345-3.343v-15.367
		c0-1.846,1.498-3.343,3.345-3.343h12.026c1.845,0,3.34-1.495,3.34-3.34V169.99c0-1.845,1.496-3.342,3.341-3.342h12.028
		c1.847,0,3.343-1.495,3.343-3.34V151.28c0-1.845,1.493-3.341,3.34-3.341h12.026c1.849,0,3.343-1.496,3.343-3.342V132.57
		c0-1.846,1.495-3.341,3.342-3.341h12.026c1.847,0,3.343-1.497,3.343-3.342v-12.028c0-1.845,1.494-3.34,3.34-3.34h15.371
		c1.844,0,3.34,1.495,3.34,3.34l0,0c0,1.846-1.496,3.341-3.34,3.341h-8.688c-1.846,0-3.342,1.497-3.342,3.342v12.028
		c0,1.845-1.496,3.34-3.342,3.34h-12.027c-1.846,0-3.34,1.497-3.34,3.342v12.028c0,1.845-1.498,3.341-3.342,3.341h-12.029
		c-1.844,0-3.34,1.494-3.34,3.342v12.027c0,1.846-1.496,3.341-3.343,3.341h-12.026c-1.846,0-3.342,1.497-3.342,3.342v12.028
		c0,1.845-1.496,3.34-3.343,3.34h-12.026c-1.847,0-3.341,1.497-3.341,3.342v8.687
		C1023.508,205.914,1022.01,207.411,1020.168,207.411z"/>
</g>
<g opacity="0.3">
	<path fill="#FF6761" d="M0.592,34.523c-0.17-0.169-0.348-0.322-0.525-0.476v13.228c0.179-0.151,0.355-0.306,0.525-0.476
		C3.981,43.411,3.981,37.914,0.592,34.523z"/>
	<circle fill="#FF6761" cx="20.122" cy="14.992" r="8.682"/>
	<circle fill="#FF6761" cx="16.774" cy="62.984" r="8.681"/>
	<circle fill="#FF6761" cx="42.444" cy="37.314" r="8.681"/>
	<circle fill="#FF6761" cx="68.114" cy="11.644" r="8.681"/>
	<circle fill="#FF6761" cx="13.426" cy="110.974" r="8.681"/>
	<circle fill="#FF6761" cx="39.096" cy="85.305" r="8.681"/>
	<circle fill="#FF6761" cx="64.766" cy="59.635" r="8.681"/>
	<circle fill="#FF6761" cx="90.435" cy="33.966" r="8.681"/>
	<path fill="#FF6761" d="M118.352-0.082h-4.494c-1.426,0.381-2.772,1.121-3.891,2.239c-3.393,3.391-3.391,8.889-0.002,12.278
		c3.393,3.391,8.887,3.391,12.279-0.001c3.389-3.39,3.391-8.887-0.002-12.277C121.125,1.04,119.778,0.299,118.352-0.082z"/>
	<circle fill="#FF6761" cx="10.078" cy="158.965" r="8.681"/>
	<circle fill="#FF6761" cx="35.748" cy="133.296" r="8.682"/>
	<circle fill="#FF6761" cx="61.417" cy="107.627" r="8.681"/>
	<circle fill="#FF6761" cx="87.086" cy="81.957" r="8.681"/>
	<circle fill="#FF6761" cx="112.756" cy="56.287" r="8.681"/>
	<circle fill="#FF6761" cx="138.426" cy="30.618" r="8.681"/>
	<path fill="#FF6761" d="M157.031-0.082c-2.418,3.391-2.114,8.125,0.929,11.168c3.391,3.392,8.887,3.392,12.274,0.001
		c3.043-3.043,3.347-7.777,0.927-11.169H157.031z"/>
	<path fill="#FF6761" d="M38.537,175.148c3.391,3.39,3.391,8.888,0,12.279c-3.39,3.389-8.888,3.387-12.275-0.004
		c-3.389-3.389-3.391-8.886-0.002-12.274C29.651,171.759,35.149,171.76,38.537,175.148z"/>
	<circle fill="#FF6761" cx="58.069" cy="155.617" r="8.682"/>
	<circle fill="#FF6761" cx="83.739" cy="129.948" r="8.681"/>
	<circle fill="#FF6761" cx="109.408" cy="104.279" r="8.682"/>
	<circle fill="#FF6761" cx="135.078" cy="78.609" r="8.681"/>
	<circle fill="#FF6761" cx="160.748" cy="52.939" r="8.681"/>
	<circle fill="#FF6761" cx="186.418" cy="27.269" r="8.681"/>
	<circle fill="#FF6761" cx="54.722" cy="203.609" r="8.68"/>
	<circle fill="#FF6761" cx="80.391" cy="177.939" r="8.681"/>
	<circle fill="#FF6761" cx="106.061" cy="152.269" r="8.681"/>
	<circle fill="#FF6761" cx="131.73" cy="126.6" r="8.682"/>
	<circle fill="#FF6761" cx="157.399" cy="100.93" r="8.681"/>
	<circle fill="#FF6761" cx="183.069" cy="75.26" r="8.681"/>
	<circle fill="#FF6761" cx="208.74" cy="49.59" r="8.68"/>
	<circle fill="#FF6761" cx="77.043" cy="225.93" r="8.681"/>
	<circle fill="#FF6761" cx="102.712" cy="200.26" r="8.682"/>
	<circle fill="#FF6761" cx="128.381" cy="174.591" r="8.681"/>
	<circle fill="#FF6761" cx="154.051" cy="148.922" r="8.681"/>
	<circle fill="#FF6761" cx="179.721" cy="123.252" r="8.681"/>
	<circle fill="#FF6761" cx="205.391" cy="97.582" r="8.682"/>
	<circle fill="#FF6761" cx="231.061" cy="71.911" r="8.681"/>
</g>
<g>
	<path opacity="0.09" fill="#616161" enable-background="new    " d="M1918.766,760.834c0,0-240.496,18.957-206.29-239.547
		c27.669-209.067-271.193-127.821-275.196-297.803C1434.619,110.539,1675.9,118.892,1457.462,0l462.156,0.273L1918.766,760.834z"/>
	<path opacity="0.09" fill="#616161" enable-background="new    " d="M1918.998,689.566c0,0-214.93,0-167.193-187.131
		c50.405-197.619-245.773-123.201-249.02-287.033C1500.633,106.541,1687.168,86.271,1545.113,0l374.507,0.273L1918.998,689.566z"/>
	<g opacity="0.9">
		<path opacity="0.9" fill="#FF6761" enable-background="new    " d="M1920,658.013c0,0-182.483,24.588-142.524-184.572
			c27.485-143.859-138.597-106.328-204.24-209.23C1509.203,163.834,1705.547,87.804,1560.104,1l359.516-0.727L1920,658.013z"/>
	</g>
	<g>
		<path opacity="0.9" fill="#FF6761" enable-background="new    " d="M1919.5,196.463c-33,0.517-59.445,27.344-59.445,60.384
			s26.445,59.869,59.445,60.385V196.463z"/>
		<path opacity="0.9" fill="#FF6761" enable-background="new    " d="M1919.5,104.287V0.273L1560.043,1
			c86.99,51.918,51.745,99.982,23.041,151.706c0.688,3.049,1.361,6.133,1.984,9.268c18.402,92.521,192.052,93.653,230.05,17.982
			C1853.118,104.287,1919.5,104.287,1919.5,104.287z"/>
	</g>
	<path opacity="0.1" fill="#FFFFFF" enable-background="new    " d="M1726.115,0c-16.697,26.262-23.541,57.076-23.541,85.617
		c0,106.636,176.207,140.907,134.565,275.512c-55.519,179.474,82.479,174.388,82.479,174.388V0.273L1726.115,0z"/>
</g>
</svg>
