<?xml version="1.0" encoding="utf-8"?>
<!-- Generator: Adobe Illustrator 16.0.0, SVG Export Plug-In . SVG Version: 6.00 Build 0)  -->
<!DOCTYPE svg PUBLIC "-//W3C//DTD SVG 1.1//EN" "http://www.w3.org/Graphics/SVG/1.1/DTD/svg11.dtd">
<svg version="1.1" id="Layer_1" xmlns="http://www.w3.org/2000/svg" xmlns:xlink="http://www.w3.org/1999/xlink" x="0px" y="0px"
	 width="1920px" height="900px" viewBox="0 0 1920 900" enable-background="new 0 0 1920 900" xml:space="preserve">
<g>
	<path fill="#A8F9FF" d="M55.001,37.352c-18.515,0-36.854,0.753-55.001,2.207v0.447C18.146,38.552,36.488,37.8,55.001,37.8
		c375.953,0,681.816,305.862,681.816,681.816c0,62.421-8.439,122.906-24.225,180.384h0.464
		c15.771-57.479,24.207-117.965,24.207-180.384C737.265,343.416,431.2,37.352,55.001,37.352z"/>
	<path fill="#A8F9FF" d="M55.001,99.359c-18.532,0-36.877,0.82-55.001,2.42v0.447c18.124-1.602,36.469-2.421,55.001-2.421
		c341.76,0,619.801,278.046,619.801,619.811c0,56.663-7.65,111.57-21.959,163.753h0.464c14.298-52.186,21.94-107.092,21.94-163.753
		C675.247,377.606,397.007,99.359,55.001,99.359z"/>
	<path fill="#A8F9FF" d="M55.001,161.371c-18.559,0-36.903,0.919-55.001,2.697v0.447c18.098-1.779,36.442-2.699,55.001-2.699
		c307.573,0,557.802,250.229,557.802,557.8c0,45.016-5.368,88.799-15.483,130.753h0.459c10.107-41.955,15.472-85.738,15.472-130.753
		C613.248,411.799,362.82,161.371,55.001,161.371z"/>
	<path fill="#A8F9FF" d="M55.001,223.376c-18.588,0-36.938,1.036-55.001,3.036v0.45c18.062-2.003,36.413-3.039,55.001-3.039
		c273.383,0,495.797,222.412,495.797,495.793c0,45.242-6.112,89.08-17.521,130.753h0.463
		c11.397-41.676,17.504-85.513,17.504-130.753C551.244,445.989,328.63,223.376,55.001,223.376z"/>
	<path fill="#A8F9FF" d="M55.001,285.389c-18.628,0-36.984,1.181-55.001,3.468v0.449c18.016-2.289,36.373-3.472,55.001-3.472
		c239.186,0,433.778,194.594,433.778,433.78c0,55.247-10.389,108.112-29.303,156.753h0.479
		c18.896-48.646,29.271-101.51,29.271-156.753C489.227,480.182,294.435,285.389,55.001,285.389z"/>
	<path fill="#A8F9FF" d="M55.001,347.404c-18.685,0-37.049,1.392-55.001,4.062v0.45c17.952-2.674,36.315-4.064,55.001-4.064
		c204.992,0,371.766,166.772,371.766,371.766c0,55.974-12.436,109.097-34.685,156.753h0.492
		c22.222-47.666,34.64-100.786,34.64-156.753C427.214,514.379,260.24,347.404,55.001,347.404z"/>
	<path fill="#A8F9FF" d="M346.947,824.462c11.81-32.765,18.261-68.062,18.261-104.846c0-171.046-139.157-310.202-310.205-310.202
		c-18.766,0-37.146,1.678-55.001,4.886v0.454c17.854-3.213,36.234-4.894,55.001-4.894c170.801,0,309.758,138.956,309.758,309.756
		c0,36.29-6.289,71.136-17.812,103.521L346.947,824.462L346.947,824.462z"/>
	<path fill="#A8F9FF" d="M55.001,471.421c-18.896,0-37.304,2.133-55.001,6.151v0.456c17.695-4.025,36.104-6.162,55.001-6.162
		c136.615,0,247.759,111.142,247.759,247.75c0,25.555-3.899,50.212-11.118,73.421h0.467c7.205-23.213,11.099-47.868,11.099-73.421
		C303.206,582.76,191.863,471.421,55.001,471.421z"/>
	<path fill="#A8F9FF" d="M55.001,533.425c-19.14,0-37.61,2.905-55.001,8.294v0.467c17.388-5.401,35.859-8.313,55.001-8.313
		c102.42,0,185.746,83.325,185.746,185.745c0,26.067-5.416,50.888-15.152,73.421h0.488c9.711-22.541,15.109-47.359,15.109-73.421
		C241.194,616.95,157.667,533.425,55.001,533.425z"/>
	<path fill="#A8F9FF" d="M55.001,595.431c-19.739,0-38.412,4.637-55.001,12.866v0.499c16.578-8.263,35.255-12.919,55.001-12.919
		c68.229,0,123.735,55.509,123.735,123.737c0,27.467-9,52.868-24.198,73.421h0.552c15.137-20.581,24.094-45.973,24.094-73.421
		C179.184,651.14,123.476,595.431,55.001,595.431z"/>
</g>
<g>
	<path opacity="0.09" fill="#616161" enable-background="new    " d="M554.439,808.063c-29.038-39.722-52.706-62.356-110.301-69.372
		c-17.81-2.169-37.177-2.708-57.563-1.616c-15.576,0.833-30.117,0.463-43.214-1.132l-0.019-0.003
		c-68.013-8.284-94.479-48.812-127.977-100.101c-19.259-29.486-39.171-59.99-68.468-85.877
		c-34.627-30.598-75.72-48.426-125.63-54.505C13.996,494.572,6.909,494.099,0,494.01v290.94l424.421,89.808
		C510.17,898.576,574.443,835.426,554.439,808.063z"/>
	<path fill="#006ABD" d="M539.643,813.933c-23.73-36.955-69.855-66.682-157.967-61.965
		c-233.11,12.477-173.23-217.595-372.464-241.86C6.02,509.719,2.991,509.443,0,509.25v298.688
		c125.446-11.249,255.554,58.232,356.001,75.773c43.436,7.305,107.562,0.122,149.687-14.896
		C531.198,857.824,550.633,839.041,539.643,813.933z"/>
	<path opacity="0.5" fill="#005CA3" enable-background="new    " d="M18.584,662.476c-6.24-0.76-12.426-1.242-18.584-1.47v146.929
		c103.591-9.29,210.354,36.467,300.979,62.574C214.983,786.408,184.249,682.654,18.584,662.476z"/>
</g>
<g opacity="0.5">
	<circle fill="#006ABD" cx="1649.577" cy="687.252" r="4.927"/>
	<circle fill="#006ABD" cx="1670.184" cy="687.252" r="4.928"/>
	<circle fill="#006ABD" cx="1690.788" cy="687.252" r="4.927"/>
	<circle fill="#006ABD" cx="1711.395" cy="687.252" r="4.928"/>
	<circle fill="#006ABD" cx="1732" cy="687.252" r="4.928"/>
	<circle fill="#006ABD" cx="1752.606" cy="687.252" r="4.928"/>
	<circle fill="#006ABD" cx="1773.212" cy="687.252" r="4.927"/>
	<circle fill="#006ABD" cx="1649.577" cy="705.169" r="4.927"/>
	<circle fill="#006ABD" cx="1670.184" cy="705.169" r="4.928"/>
	<circle fill="#006ABD" cx="1690.788" cy="705.169" r="4.927"/>
	<circle fill="#006ABD" cx="1711.395" cy="705.169" r="4.928"/>
	<circle fill="#006ABD" cx="1732" cy="705.169" r="4.928"/>
	<circle fill="#006ABD" cx="1752.606" cy="705.169" r="4.928"/>
	<circle fill="#006ABD" cx="1773.212" cy="705.169" r="4.927"/>
	<circle fill="#006ABD" cx="1649.577" cy="723.087" r="4.927"/>
	<circle fill="#006ABD" cx="1670.184" cy="723.087" r="4.928"/>
	<circle fill="#006ABD" cx="1690.788" cy="723.087" r="4.927"/>
	<circle fill="#006ABD" cx="1711.395" cy="723.087" r="4.928"/>
	<circle fill="#006ABD" cx="1732" cy="723.087" r="4.928"/>
	<circle fill="#006ABD" cx="1752.606" cy="723.087" r="4.928"/>
	<circle fill="#006ABD" cx="1773.212" cy="723.087" r="4.927"/>
	<circle fill="#006ABD" cx="1649.577" cy="741.005" r="4.927"/>
	<circle fill="#006ABD" cx="1670.184" cy="741.005" r="4.928"/>
	<circle fill="#006ABD" cx="1690.788" cy="741.005" r="4.927"/>
	<circle fill="#006ABD" cx="1711.395" cy="741.005" r="4.928"/>
	<circle fill="#006ABD" cx="1732" cy="741.005" r="4.928"/>
	<circle fill="#006ABD" cx="1752.606" cy="741.005" r="4.928"/>
	<circle fill="#006ABD" cx="1773.212" cy="741.005" r="4.927"/>
	<circle fill="#006ABD" cx="1649.577" cy="758.923" r="4.927"/>
	<circle fill="#006ABD" cx="1670.184" cy="758.923" r="4.928"/>
	<circle fill="#006ABD" cx="1690.788" cy="758.923" r="4.927"/>
	<circle fill="#006ABD" cx="1711.395" cy="758.923" r="4.928"/>
	<circle fill="#006ABD" cx="1732" cy="758.923" r="4.928"/>
	<circle fill="#006ABD" cx="1752.606" cy="758.923" r="4.928"/>
	<circle fill="#006ABD" cx="1773.212" cy="758.923" r="4.927"/>
	<circle fill="#006ABD" cx="1649.577" cy="776.841" r="4.927"/>
	<circle fill="#006ABD" cx="1670.184" cy="776.841" r="4.928"/>
	<circle fill="#006ABD" cx="1690.788" cy="776.841" r="4.927"/>
	<circle fill="#006ABD" cx="1711.395" cy="776.841" r="4.928"/>
	<circle fill="#006ABD" cx="1732" cy="776.841" r="4.928"/>
	<circle fill="#006ABD" cx="1752.606" cy="776.841" r="4.928"/>
	<circle fill="#006ABD" cx="1773.212" cy="776.841" r="4.927"/>
	<circle fill="#006ABD" cx="1649.577" cy="794.759" r="4.927"/>
	<circle fill="#006ABD" cx="1670.184" cy="794.759" r="4.928"/>
	<circle fill="#006ABD" cx="1690.788" cy="794.759" r="4.927"/>
	<circle fill="#006ABD" cx="1711.395" cy="794.759" r="4.928"/>
	<circle fill="#006ABD" cx="1732" cy="794.759" r="4.928"/>
	<circle fill="#006ABD" cx="1752.606" cy="794.759" r="4.928"/>
	<circle fill="#006ABD" cx="1773.212" cy="794.759" r="4.927"/>
	<circle fill="#006ABD" cx="1649.577" cy="812.677" r="4.927"/>
	<circle fill="#006ABD" cx="1670.184" cy="812.677" r="4.928"/>
	<circle fill="#006ABD" cx="1690.788" cy="812.677" r="4.927"/>
	<circle fill="#006ABD" cx="1711.395" cy="812.677" r="4.928"/>
	<circle fill="#006ABD" cx="1732" cy="812.677" r="4.928"/>
	<circle fill="#006ABD" cx="1752.606" cy="812.677" r="4.928"/>
	<circle fill="#006ABD" cx="1773.212" cy="812.677" r="4.927"/>
</g>
<g>
	<path fill="#FDB900" d="M1322.954,839.944c-5.155,0.088-9.423-4.033-9.514-9.187c-0.088-5.156,4.033-9.424,9.188-9.515
		c5.155-0.088,9.423,4.033,9.514,9.188C1332.231,835.588,1328.11,839.854,1322.954,839.944z M1322.704,825.579
		c-2.767,0.048-4.978,2.339-4.929,5.104c0.048,2.767,2.339,4.978,5.104,4.929s4.978-2.338,4.93-5.103
		C1327.76,827.741,1325.47,825.53,1322.704,825.579z"/>
	<path opacity="0.7" fill="#006ABD" enable-background="new    " d="M761.231,159.697c-5.156,0.088-9.423-4.033-9.514-9.187
		c-0.088-5.156,4.033-9.424,9.188-9.515c5.156-0.088,9.423,4.033,9.515,9.188C770.506,155.34,766.385,159.607,761.231,159.697z
		 M760.981,145.332c-2.767,0.048-4.978,2.338-4.929,5.104c0.048,2.767,2.339,4.978,5.103,4.929c2.766-0.049,4.979-2.338,4.931-5.103
		C766.034,147.494,763.744,145.283,760.981,145.332z"/>
	<path fill="#FDB900" d="M1675.616,486.325c-16.021,0.278-29.282-12.528-29.561-28.551c-0.277-16.02,12.528-29.28,28.549-29.561
		c16.021-0.278,29.283,12.528,29.561,28.551C1704.447,472.786,1691.639,486.049,1675.616,486.325z M1674.84,441.683
		c-8.595,0.147-15.465,7.263-15.315,15.859c0.15,8.594,7.263,15.463,15.856,15.312c8.597-0.148,15.469-7.261,15.317-15.854
		C1690.551,448.404,1683.436,441.533,1674.84,441.683z"/>
	<path opacity="0.5" fill="#006ABD" enable-background="new    " d="M1477.97,730.159l0.002,16.501h-16.504
		c-4.056,0-7.337,3.282-7.333,7.334c-0.001,4.055,3.28,7.336,7.333,7.333l16.498-0.002l0.003,16.502
		c-0.001,4.055,3.281,7.337,7.336,7.337c4.048-0.001,7.33-3.282,7.333-7.334v-16.504l16.502,0.003
		c4.047,0.001,7.333-3.286,7.332-7.333c0-4.054-3.282-7.336-7.336-7.336l-16.501-0.004l0.001-16.496
		c0.002-4.052-3.28-7.334-7.334-7.334C1481.25,722.822,1477.966,726.108,1477.97,730.159z"/>
	<path fill="#FDB900" d="M1699.823,577.864l-13.961,13.961l-13.962-13.961c-0.973-0.973-2.548-0.973-3.521,0
		c-0.974,0.974-0.974,2.549,0,3.521l13.961,13.96l-13.961,13.962c-0.974,0.972-0.974,2.548,0,3.521c0.973,0.973,2.548,0.972,3.521,0
		l13.962-13.962l13.961,13.963c0.971,0.972,2.549,0.972,3.521-0.001s0.972-2.549-0.001-3.521l-13.96-13.963l13.96-13.959
		c0.973-0.972,0.974-2.548,0-3.521C1702.37,576.89,1700.793,576.891,1699.823,577.864z"/>
	<path opacity="0.3" fill="#FDB900" enable-background="new    " d="M347.197,204.957v14.778l-14.779,0.001
		c-1.029,0-1.863,0.833-1.863,1.863c0,1.029,0.835,1.863,1.863,1.862l14.778-0.001v14.78c0,1.029,0.834,1.863,1.864,1.864
		c1.029-0.001,1.862-0.835,1.863-1.864v-14.779l14.78,0.001c1.026,0,1.862-0.836,1.862-1.863c0-1.03-0.835-1.863-1.864-1.863
		l-14.779-0.001v-14.778c0.001-1.028-0.833-1.863-1.863-1.862C348.03,203.092,347.196,203.927,347.197,204.957z"/>
</g>
<g>
	
		<linearGradient id="SVGID_1_" gradientUnits="userSpaceOnUse" x1="836.7751" y1="101.5266" x2="1025.0393" y2="101.5266" gradientTransform="matrix(1 0 0 -1 24.9448 891.3589)">
		<stop  offset="0" style="stop-color:#FDB900"/>
		<stop  offset="1" style="stop-color:#FFFFFF"/>
	</linearGradient>
	<path fill="url(#SVGID_1_)" d="M868.211,883.966L868.211,883.966c-3.588,0-6.491-2.904-6.491-6.491v-29.862
		c0-3.585,2.903-6.493,6.486-6.493h23.375c3.583,0,6.492-2.905,6.492-6.49V811.26c0-3.589,2.908-6.493,6.492-6.493l23.374-0.003
		c3.583,0,6.489-2.904,6.489-6.491v-23.371c0-3.588,2.906-6.491,6.493-6.491h23.371c3.585,0,6.488-2.908,6.488-6.492v-23.369
		c0-3.588,2.909-6.491,6.494-6.496h23.37c3.587,0,6.496-2.904,6.496-6.491V702.19c0-3.584,2.901-6.491,6.489-6.491h29.863
		c3.585,0,6.49,2.904,6.49,6.491l0,0c0,3.585-2.905,6.493-6.49,6.493h-16.88c-3.588,0-6.489,2.907-6.489,6.491v23.369
		c0,3.589-2.909,6.492-6.494,6.492l-23.373,0.003c-3.584,0-6.492,2.904-6.492,6.493v23.369c0,3.588-2.903,6.491-6.49,6.491h-23.371
		c-3.585,0-6.492,2.909-6.492,6.493v23.369c0,3.589-2.905,6.491-6.49,6.495h-23.374c-3.584,0-6.492,2.904-6.492,6.491v23.371
		c0,3.584-2.902,6.491-6.49,6.491h-23.371c-3.587,0-6.492,2.907-6.492,6.491v16.88C874.702,881.06,871.796,883.966,868.211,883.966z
		"/>
</g>
<g>
	
		<linearGradient id="SVGID_2_" gradientUnits="userSpaceOnUse" x1="991.8147" y1="732.3308" x2="1088.7053" y2="732.3308" gradientTransform="matrix(1 0 0 -1 24.9448 891.3589)">
		<stop  offset="0" style="stop-color:#006ABD"/>
		<stop  offset="1" style="stop-color:#FFFFFF"/>
	</linearGradient>
	<path fill="url(#SVGID_2_)" d="M1020.102,207.474L1020.102,207.474c-1.846,0-3.343-1.497-3.343-3.344v-15.366
		c0-1.847,1.497-3.344,3.343-3.344h12.027c1.845,0,3.34-1.495,3.34-3.34v-12.027c0-1.846,1.497-3.343,3.34-3.343h12.03
		c1.845,0,3.341-1.495,3.341-3.34v-12.027c0-1.846,1.494-3.342,3.34-3.342h12.027c1.848,0,3.343-1.496,3.343-3.342v-12.027
		c0-1.846,1.495-3.341,3.341-3.341h12.027c1.846,0,3.342-1.497,3.342-3.342v-12.028c0-1.845,1.495-3.34,3.34-3.34h15.371
		c1.845,0,3.34,1.495,3.34,3.34l0,0c0,1.847-1.495,3.342-3.34,3.342h-8.688c-1.846,0-3.341,1.497-3.341,3.342v12.027
		c0,1.846-1.497,3.341-3.343,3.341h-12.027c-1.846,0-3.34,1.497-3.34,3.342v12.027c0,1.846-1.497,3.342-3.342,3.342h-12.028
		c-1.845,0-3.341,1.494-3.341,3.342v12.027c0,1.846-1.496,3.341-3.342,3.341h-12.027c-1.846,0-3.341,1.497-3.341,3.342v12.028
		c0,1.845-1.497,3.34-3.343,3.34h-12.027c-1.846,0-3.34,1.497-3.34,3.342v8.686C1023.442,205.977,1021.945,207.474,1020.102,207.474
		z"/>
</g>
<g opacity="0.3">
	<path fill="#FDB900" d="M0.526,34.587C0.357,34.418,0.179,34.264,0,34.112v13.227c0.179-0.15,0.355-0.306,0.524-0.475
		C3.915,43.474,3.915,37.977,0.526,34.587z"/>
	<circle fill="#FDB900" cx="20.056" cy="15.056" r="8.682"/>
	<circle fill="#FDB900" cx="16.708" cy="63.047" r="8.681"/>
	<circle fill="#FDB900" cx="42.378" cy="37.378" r="8.681"/>
	<circle fill="#FDB900" cx="68.047" cy="11.708" r="8.681"/>
	<circle fill="#FDB900" cx="13.36" cy="111.038" r="8.682"/>
	<circle fill="#FDB900" cx="39.03" cy="85.368" r="8.681"/>
	<circle fill="#FDB900" cx="64.699" cy="59.699" r="8.681"/>
	<circle fill="#FDB900" cx="90.369" cy="34.029" r="8.681"/>
	<path fill="#FDB900" d="M118.285-0.019h-4.494c-1.425,0.381-2.773,1.121-3.892,2.239c-3.392,3.391-3.39,8.889-0.001,12.277
		c3.393,3.392,8.888,3.392,12.278-0.001c3.39-3.389,3.391-8.886-0.001-12.276C121.06,1.103,119.711,0.362,118.285-0.019z"/>
	<circle fill="#FDB900" cx="10.012" cy="159.029" r="8.681"/>
	<circle fill="#FDB900" cx="35.682" cy="133.36" r="8.682"/>
	<circle fill="#FDB900" cx="61.351" cy="107.69" r="8.681"/>
	<circle fill="#FDB900" cx="87.021" cy="82.02" r="8.681"/>
	<circle fill="#FDB900" cx="112.691" cy="56.351" r="8.681"/>
	<circle fill="#FDB900" cx="138.36" cy="30.681" r="8.682"/>
	<path fill="#FDB900" d="M156.965-0.019c-2.418,3.39-2.115,8.125,0.928,11.168c3.392,3.391,8.887,3.391,12.276,0.001
		c3.042-3.043,3.345-7.778,0.925-11.169H156.965z"/>
	<path fill="#FDB900" d="M38.472,175.212c3.39,3.391,3.391,8.889,0,12.279c-3.39,3.389-8.887,3.387-12.276-0.003
		c-3.389-3.389-3.391-8.886-0.002-12.275C29.585,171.822,35.083,171.823,38.472,175.212z"/>
	<circle fill="#FDB900" cx="58.003" cy="155.681" r="8.682"/>
	<circle fill="#FDB900" cx="83.673" cy="130.011" r="8.681"/>
	<circle fill="#FDB900" cx="109.342" cy="104.342" r="8.682"/>
	<circle fill="#FDB900" cx="135.012" cy="78.673" r="8.681"/>
	<circle fill="#FDB900" cx="160.682" cy="53.003" r="8.681"/>
	<circle fill="#FDB900" cx="186.352" cy="27.332" r="8.681"/>
	<circle fill="#FDB900" cx="54.656" cy="203.672" r="8.68"/>
	<circle fill="#FDB900" cx="80.324" cy="178.003" r="8.681"/>
	<circle fill="#FDB900" cx="105.994" cy="152.333" r="8.681"/>
	<circle fill="#FDB900" cx="131.664" cy="126.663" r="8.682"/>
	<circle fill="#FDB900" cx="157.333" cy="100.994" r="8.681"/>
	<circle fill="#FDB900" cx="183.003" cy="75.324" r="8.681"/>
	<circle fill="#FDB900" cx="208.674" cy="49.654" r="8.681"/>
	<circle fill="#FDB900" cx="76.977" cy="225.993" r="8.681"/>
	<circle fill="#FDB900" cx="102.646" cy="200.324" r="8.682"/>
	<circle fill="#FDB900" cx="128.316" cy="174.655" r="8.681"/>
	<circle fill="#FDB900" cx="153.986" cy="148.985" r="8.681"/>
	<circle fill="#FDB900" cx="179.655" cy="123.315" r="8.681"/>
	<circle fill="#FDB900" cx="205.324" cy="97.646" r="8.682"/>
	<circle fill="#FDB900" cx="230.995" cy="71.975" r="8.681"/>
</g>
<g>
	<path opacity="0.09" fill="#616161" enable-background="new    " d="M1918.766,760.834c0,0-240.496,18.957-206.29-239.547
		c27.669-209.067-271.193-127.821-275.196-297.803C1434.619,110.539,1675.9,118.892,1457.462,0l462.156,0.273L1918.766,760.834z"/>
	<path opacity="0.09" fill="#616161" enable-background="new    " d="M1918.998,689.566c0,0-214.93,0-167.193-187.131
		c50.405-197.619-245.773-123.201-249.02-287.033C1500.633,106.541,1687.168,86.271,1545.113,0l374.507,0.273L1918.998,689.566z"/>
	<g opacity="0.9">
		<path opacity="0.9" fill="#006ABD" enable-background="new    " d="M1920,658.013c0,0-182.483,24.588-142.524-184.572
			c27.485-143.859-138.597-106.328-204.24-209.23C1509.203,163.834,1705.547,87.804,1560.104,1l359.516-0.727L1920,658.013z"/>
	</g>
	<g>
		<path opacity="0.9" fill="#006ABD" enable-background="new    " d="M1919.5,104.287V0.273L1560.043,1
			c86.99,51.918,51.745,99.982,23.041,151.706c0.688,3.049,1.361,6.133,1.984,9.268c18.402,92.521,192.052,93.653,230.05,17.982
			C1853.118,104.287,1919.5,104.287,1919.5,104.287z"/>
		<path opacity="0.9" fill="#006ABD" enable-background="new    " d="M1919.5,196.463c-33,0.517-59.445,27.344-59.445,60.384
			s26.445,59.869,59.445,60.385V196.463z"/>
	</g>
	<path opacity="0.1" fill="#FFFFFF" enable-background="new    " d="M1726.115,0c-16.697,26.262-23.541,57.076-23.541,85.617
		c0,106.636,176.207,140.907,134.565,275.512c-55.519,179.474,82.479,174.388,82.479,174.388V0.273L1726.115,0z"/>
</g>
</svg>
