<?xml version="1.0" encoding="utf-8"?>
<!-- Generator: Adobe Illustrator 16.0.0, SVG Export Plug-In . SVG Version: 6.00 Build 0)  -->
<!DOCTYPE svg PUBLIC "-//W3C//DTD SVG 1.1//EN" "http://www.w3.org/Graphics/SVG/1.1/DTD/svg11.dtd">
<svg version="1.1" id="Layer_1" xmlns="http://www.w3.org/2000/svg" xmlns:xlink="http://www.w3.org/1999/xlink" x="0px" y="0px"
	 width="1920px" height="900px" viewBox="0 0 1920 900" enable-background="new 0 0 1920 900" xml:space="preserve">
<g>
	<path fill="#B7FFA6" d="M55.001,37.352c-18.518,0-36.854,0.753-55.001,2.207v0.444C18.146,38.552,36.488,37.8,55.001,37.8
		c375.95,0,681.813,305.862,681.813,681.816c0,62.421-8.438,122.906-24.225,180.384h0.464
		c15.771-57.479,24.207-117.965,24.207-180.384C737.265,343.416,431.198,37.352,55.001,37.352z"/>
	<path fill="#B7FFA6" d="M55.001,99.359c-18.532,0-36.877,0.82-55.001,2.42v0.447c18.124-1.604,36.469-2.421,55.001-2.421
		c341.76,0,619.801,278.046,619.801,619.811c0,56.663-7.65,111.57-21.959,163.753h0.464
		c14.298-52.186,21.938-107.092,21.938-163.753C675.244,377.606,397.007,99.359,55.001,99.359z"/>
	<path fill="#B7FFA6" d="M55.001,161.371c-18.562,0-36.903,0.919-55.001,2.697v0.447c18.098-1.779,36.439-2.699,55.001-2.699
		c307.573,0,557.802,250.229,557.802,557.8c0,45.019-5.368,88.799-15.483,130.753h0.459c10.107-41.955,15.472-85.735,15.472-130.753
		C613.245,411.802,362.82,161.371,55.001,161.371z"/>
	<path fill="#B7FFA6" d="M55.001,223.376c-18.588,0-36.938,1.036-55.001,3.036v0.45c18.062-2.003,36.413-3.039,55.001-3.039
		c273.383,0,495.797,222.412,495.797,495.793c0,45.242-6.112,89.08-17.521,130.753h0.463
		c11.397-41.676,17.504-85.513,17.504-130.753C551.241,445.989,328.63,223.376,55.001,223.376z"/>
	<path fill="#B7FFA6" d="M55.001,285.389c-18.628,0-36.984,1.181-55.001,3.468v0.449c18.016-2.289,36.373-3.475,55.001-3.475
		c239.186,0,433.775,194.597,433.775,433.78c0,55.247-10.389,108.112-29.303,156.753h0.479
		c18.896-48.646,29.271-101.51,29.271-156.753C489.227,480.182,294.435,285.389,55.001,285.389z"/>
	<path fill="#B7FFA6" d="M55.001,347.404c-18.688,0-37.049,1.395-55.001,4.062v0.447c17.952-2.674,36.312-4.062,55.001-4.062
		c204.992,0,371.766,166.772,371.766,371.766c0,55.977-12.438,109.1-34.685,156.753h0.492
		c22.222-47.666,34.64-100.783,34.64-156.753C427.214,514.382,260.24,347.404,55.001,347.404z"/>
	<path fill="#B7FFA6" d="M346.947,824.465c11.812-32.768,18.264-68.062,18.264-104.849c0-171.046-139.157-310.202-310.205-310.202
		c-18.769,0-37.146,1.681-55.001,4.889v0.454c17.854-3.214,36.231-4.896,55.001-4.896c170.801,0,309.758,138.956,309.758,309.756
		c0,36.29-6.289,71.138-17.812,103.521L346.947,824.465L346.947,824.465z"/>
	<path fill="#B7FFA6" d="M55.001,471.424c-18.896,0-37.307,2.133-55.001,6.148v0.456c17.692-4.022,36.104-6.162,55.001-6.162
		c136.615,0,247.759,111.145,247.759,247.75c0,25.558-3.899,50.212-11.118,73.421h0.467c7.205-23.213,11.102-47.865,11.102-73.421
		C303.206,582.76,191.863,471.424,55.001,471.424z"/>
	<path fill="#B7FFA6" d="M55.001,533.427c-19.143,0-37.61,2.902-55.001,8.294v0.467c17.388-5.401,35.856-8.312,55.001-8.312
		c102.42,0,185.746,83.323,185.746,185.743c0,26.067-5.416,50.891-15.152,73.423h0.488c9.711-22.541,15.106-47.358,15.106-73.423
		C241.194,616.95,157.667,533.427,55.001,533.427z"/>
	<path fill="#B7FFA6" d="M55.001,595.431c-19.739,0-38.412,4.637-55.001,12.866v0.499c16.578-8.266,35.255-12.919,55.001-12.919
		c68.229,0,123.732,55.509,123.732,123.734c0,27.47-9,52.868-24.195,73.421h0.552c15.137-20.578,24.094-45.973,24.094-73.421
		C179.184,651.14,123.476,595.431,55.001,595.431z"/>
</g>
<g>
	<path opacity="0.09" fill="#616161" enable-background="new    " d="M554.439,808.063c-29.038-39.722-52.706-62.356-110.301-69.372
		c-17.812-2.169-37.177-2.708-57.562-1.616c-15.576,0.833-30.117,0.463-43.217-1.132l-0.019-0.003
		c-68.013-8.284-94.479-48.812-127.978-100.101c-19.261-29.486-39.173-59.99-68.47-85.877
		c-34.627-30.601-75.72-48.429-125.63-54.508c-7.27-0.884-14.355-1.355-21.266-1.444V784.95l424.421,89.811
		C510.17,898.576,574.443,835.427,554.439,808.063z"/>
	<path fill="#25C9AC" d="M539.643,813.933c-23.73-36.955-69.855-66.682-157.967-61.965
		c-233.11,12.477-173.23-217.598-372.464-241.86C6.02,509.719,2.991,509.443,0,509.25v298.688
		c125.443-11.249,255.554,58.232,356.001,75.773c43.436,7.305,107.562,0.122,149.687-14.896
		C531.198,857.824,550.633,839.041,539.643,813.933z"/>
	<path opacity="0.5" fill="#21B59B" enable-background="new    " d="M18.584,662.476c-6.24-0.76-12.426-1.242-18.584-1.47v146.929
		c103.591-9.29,210.354,36.467,300.979,62.574C214.983,786.408,184.249,682.654,18.584,662.476z"/>
</g>
<g opacity="0.5">
	<circle fill="#00CD5E" cx="1649.959" cy="686.998" r="4.927"/>
	<circle fill="#00CD5E" cx="1670.566" cy="686.998" r="4.928"/>
	<circle fill="#00CD5E" cx="1691.17" cy="686.998" r="4.928"/>
	<circle fill="#00CD5E" cx="1711.777" cy="686.998" r="4.928"/>
	<circle fill="#00CD5E" cx="1732.383" cy="686.998" r="4.928"/>
	<circle fill="#00CD5E" cx="1752.988" cy="686.998" r="4.927"/>
	<circle fill="#00CD5E" cx="1773.594" cy="686.998" r="4.927"/>
	<circle fill="#00CD5E" cx="1649.959" cy="704.915" r="4.927"/>
	<circle fill="#00CD5E" cx="1670.566" cy="704.915" r="4.928"/>
	<circle fill="#00CD5E" cx="1691.17" cy="704.915" r="4.928"/>
	<circle fill="#00CD5E" cx="1711.777" cy="704.915" r="4.928"/>
	<circle fill="#00CD5E" cx="1732.383" cy="704.915" r="4.928"/>
	<circle fill="#00CD5E" cx="1752.988" cy="704.915" r="4.927"/>
	<circle fill="#00CD5E" cx="1773.594" cy="704.915" r="4.927"/>
	<circle fill="#00CD5E" cx="1649.959" cy="722.834" r="4.927"/>
	<circle fill="#00CD5E" cx="1670.566" cy="722.834" r="4.928"/>
	<circle fill="#00CD5E" cx="1691.17" cy="722.834" r="4.928"/>
	<circle fill="#00CD5E" cx="1711.777" cy="722.834" r="4.928"/>
	<circle fill="#00CD5E" cx="1732.383" cy="722.834" r="4.928"/>
	<circle fill="#00CD5E" cx="1752.988" cy="722.834" r="4.927"/>
	<circle fill="#00CD5E" cx="1773.594" cy="722.834" r="4.927"/>
	<circle fill="#00CD5E" cx="1649.959" cy="740.752" r="4.927"/>
	<circle fill="#00CD5E" cx="1670.566" cy="740.752" r="4.928"/>
	<circle fill="#00CD5E" cx="1691.17" cy="740.752" r="4.928"/>
	<circle fill="#00CD5E" cx="1711.777" cy="740.752" r="4.928"/>
	<circle fill="#00CD5E" cx="1732.383" cy="740.752" r="4.928"/>
	<circle fill="#00CD5E" cx="1752.988" cy="740.752" r="4.927"/>
	<circle fill="#00CD5E" cx="1773.594" cy="740.752" r="4.927"/>
	<circle fill="#00CD5E" cx="1649.959" cy="758.669" r="4.927"/>
	<circle fill="#00CD5E" cx="1670.566" cy="758.669" r="4.928"/>
	<circle fill="#00CD5E" cx="1691.17" cy="758.669" r="4.928"/>
	<circle fill="#00CD5E" cx="1711.777" cy="758.669" r="4.928"/>
	<circle fill="#00CD5E" cx="1732.383" cy="758.669" r="4.928"/>
	<circle fill="#00CD5E" cx="1752.988" cy="758.669" r="4.927"/>
	<circle fill="#00CD5E" cx="1773.594" cy="758.669" r="4.927"/>
	<circle fill="#00CD5E" cx="1649.959" cy="776.587" r="4.927"/>
	<circle fill="#00CD5E" cx="1670.566" cy="776.587" r="4.928"/>
	<circle fill="#00CD5E" cx="1691.17" cy="776.587" r="4.928"/>
	<circle fill="#00CD5E" cx="1711.777" cy="776.587" r="4.928"/>
	<circle fill="#00CD5E" cx="1732.383" cy="776.587" r="4.928"/>
	<circle fill="#00CD5E" cx="1752.988" cy="776.587" r="4.927"/>
	<circle fill="#00CD5E" cx="1773.594" cy="776.587" r="4.927"/>
	<circle fill="#00CD5E" cx="1649.959" cy="794.505" r="4.927"/>
	<circle fill="#00CD5E" cx="1670.566" cy="794.505" r="4.928"/>
	<circle fill="#00CD5E" cx="1691.17" cy="794.505" r="4.928"/>
	<circle fill="#00CD5E" cx="1711.777" cy="794.505" r="4.928"/>
	<circle fill="#00CD5E" cx="1732.383" cy="794.505" r="4.928"/>
	<circle fill="#00CD5E" cx="1752.988" cy="794.505" r="4.927"/>
	<circle fill="#00CD5E" cx="1773.594" cy="794.505" r="4.927"/>
	<circle fill="#00CD5E" cx="1649.959" cy="812.423" r="4.927"/>
	<circle fill="#00CD5E" cx="1670.566" cy="812.423" r="4.928"/>
	<circle fill="#00CD5E" cx="1691.17" cy="812.423" r="4.928"/>
	<circle fill="#00CD5E" cx="1711.777" cy="812.423" r="4.928"/>
	<circle fill="#00CD5E" cx="1732.383" cy="812.423" r="4.928"/>
	<circle fill="#00CD5E" cx="1752.988" cy="812.423" r="4.927"/>
	<circle fill="#00CD5E" cx="1773.594" cy="812.423" r="4.927"/>
</g>
<g>
	<path fill="#00CD5E" d="M1323.337,839.69c-5.156,0.088-9.423-4.033-9.519-9.187c-0.087-5.156,4.034-9.427,9.188-9.518
		c5.153-0.088,9.424,4.033,9.515,9.188C1332.613,835.334,1328.49,839.6,1323.337,839.69z M1323.087,825.325
		c-2.771,0.048-4.979,2.338-4.933,5.104c0.047,2.766,2.339,4.978,5.104,4.929c2.765-0.049,4.979-2.338,4.93-5.103
		C1328.142,827.487,1325.852,825.276,1323.087,825.325z"/>
	<path opacity="0.7" fill="#00B9CF" enable-background="new    " d="M761.613,159.443c-5.156,0.088-9.423-4.033-9.514-9.188
		c-0.089-5.152,4.033-9.423,9.188-9.514c5.155-0.088,9.423,4.033,9.518,9.188C770.888,155.086,766.767,159.353,761.613,159.443z
		 M761.363,145.078c-2.767,0.049-4.978,2.338-4.929,5.104c0.048,2.767,2.339,4.978,5.103,4.929c2.769-0.049,4.979-2.338,4.934-5.104
		C766.416,147.24,764.127,145.029,761.363,145.078z"/>
	<path fill="#00CD5E" d="M1675.998,486.071c-16.021,0.278-29.282-12.524-29.562-28.551c-0.278-16.019,12.529-29.28,28.549-29.561
		c16.021-0.278,29.283,12.525,29.562,28.551C1704.824,472.532,1692.021,485.798,1675.998,486.071z M1675.222,441.429
		c-8.595,0.146-15.464,7.263-15.315,15.855c0.15,8.598,7.267,15.467,15.856,15.312c8.597-0.148,15.469-7.261,15.317-15.854
		C1690.933,448.15,1683.818,441.279,1675.222,441.429z"/>
	<path opacity="0.5" fill="#00B9CF" enable-background="new    " d="M1478.352,729.905l0.002,16.501h-16.504
		c-4.055,0-7.336,3.282-7.333,7.334c-0.001,4.058,3.281,7.336,7.333,7.333l16.498-0.002l0.004,16.502
		c-0.002,4.058,3.28,7.337,7.335,7.337c4.048-0.001,7.33-3.283,7.333-7.334v-16.504l16.502,0.003
		c4.047,0.001,7.333-3.286,7.332-7.333c0-4.054-3.282-7.336-7.336-7.336l-16.501-0.004l0.001-16.496
		c0.002-4.052-3.28-7.334-7.334-7.334C1481.633,722.568,1478.348,725.854,1478.352,729.905z"/>
	<path fill="#00CD5E" d="M1700.2,577.61l-13.962,13.961l-13.961-13.961c-0.973-0.973-2.548-0.973-3.521,0
		c-0.976,0.974-0.976,2.549,0,3.521l13.962,13.96l-13.962,13.962c-0.976,0.972-0.976,2.548,0,3.521c0.974,0.976,2.549,0.975,3.521,0
		l13.961-13.962l13.962,13.963c0.975,0.975,2.552,0.975,3.521-0.001c0.972-0.973,0.972-2.549-0.001-3.521l-13.96-13.963
		l13.96-13.959c0.973-0.976,0.974-2.547,0-3.521C1702.753,576.636,1701.175,576.637,1700.2,577.61z"/>
	<path opacity="0.3" fill="#FF6761" enable-background="new    " d="M347.578,204.703v14.778l-14.78,0.001
		c-1.029,0-1.863,0.833-1.863,1.863c0,1.027,0.835,1.86,1.863,1.859l14.779-0.001v14.78c0,1.029,0.834,1.863,1.86,1.864
		c1.029-0.001,1.862-0.835,1.863-1.864v-14.779l14.78,0.001c1.023,0,1.859-0.836,1.859-1.86c0-1.03-0.835-1.863-1.861-1.863
		l-14.779-0.001v-14.778c0.001-1.029-0.833-1.864-1.863-1.863C348.411,202.838,347.577,203.674,347.578,204.703z"/>
</g>
<g>
	
		<linearGradient id="SVGID_1_" gradientUnits="userSpaceOnUse" x1="732.3225" y1="214.1462" x2="920.5784" y2="214.1462" gradientTransform="matrix(1 0 0 1 99.7793 575.4375)">
		<stop  offset="0" style="stop-color:#00CD5E"/>
		<stop  offset="1" style="stop-color:#FFFFFF"/>
	</linearGradient>
	<path fill="url(#SVGID_1_)" d="M838.592,883.715L838.592,883.715c-3.586,0-6.49-2.904-6.49-6.491V847.36
		c0-3.585,2.904-6.493,6.487-6.493h23.375c3.583,0,6.488-2.901,6.488-6.489V811.01c0-3.592,2.908-6.493,6.492-6.493l23.374-0.003
		c3.583,0,6.488-2.904,6.488-6.491v-23.371c0-3.588,2.907-6.491,6.494-6.491h23.371c3.584,0,6.485-2.907,6.485-6.491v-23.366
		c0-3.591,2.909-6.492,6.493-6.497h23.371c3.587,0,6.496-2.904,6.496-6.491v-23.371c0-3.584,2.902-6.491,6.489-6.491h29.861
		c3.584,0,6.489,2.904,6.489,6.491l0,0c0,3.585-2.905,6.493-6.489,6.493h-16.881c-3.589,0-6.487,2.906-6.487,6.491v23.366
		c0,3.593-2.908,6.492-6.493,6.492l-23.373,0.003c-3.584,0-6.492,2.904-6.492,6.493v23.369c0,3.588-2.903,6.491-6.491,6.491h-23.37
		c-3.585,0-6.491,2.909-6.491,6.493V811c0,3.593-2.903,6.492-6.488,6.496H887.93c-3.584,0-6.492,2.904-6.492,6.491v23.371
		c0,3.584-2.902,6.491-6.49,6.491h-23.371c-3.587,0-6.489,2.907-6.489,6.491v16.88C845.085,880.806,842.178,883.715,838.592,883.715
		z"/>
</g>
<g>
	
		<linearGradient id="SVGID_2_" gradientUnits="userSpaceOnUse" x1="917.3616" y1="-416.6628" x2="1014.2532" y2="-416.6628" gradientTransform="matrix(1 0 0 1 99.7793 575.4375)">
		<stop  offset="0" style="stop-color:#00B9CF"/>
		<stop  offset="1" style="stop-color:#FFFFFF"/>
	</linearGradient>
	<path fill="url(#SVGID_2_)" d="M1020.484,207.22L1020.484,207.22c-1.846,0-3.343-1.497-3.343-3.347V188.51
		c0-1.85,1.497-3.347,3.343-3.347h12.026c1.846,0,3.341-1.495,3.341-3.34V169.8c0-1.845,1.497-3.342,3.339-3.342h12.031
		c1.845,0,3.34-1.495,3.34-3.34V151.09c0-1.845,1.495-3.341,3.341-3.341h12.027c1.848,0,3.343-1.496,3.343-3.342V132.38
		c0-1.846,1.495-3.341,3.341-3.341h12.027c1.846,0,3.342-1.497,3.342-3.342v-12.028c0-1.845,1.495-3.34,3.34-3.34h15.371
		c1.845,0,3.34,1.495,3.34,3.34l0,0c0,1.85-1.495,3.345-3.34,3.345h-8.688c-1.847,0-3.341,1.493-3.341,3.342v12.024
		c0,1.849-1.497,3.344-3.343,3.344h-12.027c-1.846,0-3.34,1.493-3.34,3.342v12.024c0,1.849-1.497,3.345-3.342,3.345h-12.028
		c-1.845,0-3.342,1.49-3.342,3.342V169.8c0,1.85-1.495,3.345-3.341,3.345h-12.027c-1.847,0-3.341,1.497-3.341,3.342v12.028
		c0,1.845-1.497,3.34-3.344,3.34h-12.026c-1.846,0-3.341,1.497-3.341,3.342v8.686C1023.823,205.723,1022.323,207.22,1020.484,207.22
		z"/>
</g>
<g opacity="0.3">
	<path fill="#00CD5E" d="M0.907,34.333c-0.173-0.169-0.351-0.318-0.525-0.475v13.228c0.179-0.148,0.354-0.307,0.525-0.476
		C4.297,43.22,4.297,37.723,0.907,34.333z"/>
	<circle fill="#00CD5E" cx="20.438" cy="14.802" r="8.682"/>
	<circle fill="#00CD5E" cx="17.09" cy="62.793" r="8.681"/>
	<circle fill="#00CD5E" cx="42.76" cy="37.124" r="8.681"/>
	<circle fill="#00CD5E" cx="68.429" cy="11.454" r="8.681"/>
	<circle fill="#00CD5E" cx="13.742" cy="110.784" r="8.682"/>
	<circle fill="#00CD5E" cx="39.411" cy="85.115" r="8.681"/>
	<circle fill="#00CD5E" cx="65.081" cy="59.445" r="8.681"/>
	<circle fill="#00CD5E" cx="90.751" cy="33.775" r="8.681"/>
	<path fill="#00CD5E" d="M118.667-0.273h-4.494c-1.425,0.381-2.773,1.121-3.891,2.235c-3.396,3.395-3.394,8.893-0.005,12.278
		c3.396,3.395,8.891,3.395,12.278-0.001c3.394-3.389,3.395-8.886-0.001-12.277C121.442,0.849,120.093,0.108,118.667-0.273z"/>
	<circle fill="#00CD5E" cx="10.394" cy="158.775" r="8.681"/>
	<circle fill="#00CD5E" cx="36.064" cy="133.106" r="8.682"/>
	<circle fill="#00CD5E" cx="61.733" cy="107.436" r="8.681"/>
	<circle fill="#00CD5E" cx="87.403" cy="81.766" r="8.681"/>
	<circle fill="#00CD5E" cx="113.073" cy="56.097" r="8.681"/>
	<circle fill="#00CD5E" cx="138.742" cy="30.427" r="8.682"/>
	<path fill="#00CD5E" d="M157.347-0.273c-2.418,3.39-2.115,8.125,0.928,11.168c3.395,3.391,8.891,3.391,12.276,0.001
		c3.042-3.043,3.345-7.778,0.925-11.169H157.347z"/>
	<path fill="#00CD5E" d="M38.854,174.958c3.394,3.394,3.395,8.892,0,12.279c-3.39,3.39-8.887,3.387-12.272-0.003
		c-3.393-3.389-3.395-8.886-0.002-12.275C29.967,171.568,35.465,171.569,38.854,174.958z"/>
	<circle fill="#00CD5E" cx="58.385" cy="155.427" r="8.682"/>
	<circle fill="#00CD5E" cx="84.054" cy="129.758" r="8.681"/>
	<circle fill="#00CD5E" cx="109.724" cy="104.088" r="8.682"/>
	<circle fill="#00CD5E" cx="135.394" cy="78.419" r="8.681"/>
	<circle fill="#00CD5E" cx="161.064" cy="52.749" r="8.681"/>
	<circle fill="#00CD5E" cx="186.734" cy="27.078" r="8.681"/>
	<circle fill="#00CD5E" cx="55.037" cy="203.418" r="8.68"/>
	<circle fill="#00CD5E" cx="80.706" cy="177.749" r="8.681"/>
	<circle fill="#00CD5E" cx="106.376" cy="152.079" r="8.681"/>
	<circle fill="#00CD5E" cx="132.046" cy="126.409" r="8.682"/>
	<circle fill="#00CD5E" cx="157.715" cy="100.74" r="8.681"/>
	<circle fill="#00CD5E" cx="183.385" cy="75.07" r="8.681"/>
	<circle fill="#00CD5E" cx="209.055" cy="49.4" r="8.681"/>
	<circle fill="#00CD5E" cx="77.359" cy="225.74" r="8.681"/>
	<circle fill="#00CD5E" cx="103.028" cy="200.07" r="8.682"/>
	<circle fill="#00CD5E" cx="128.698" cy="174.401" r="8.681"/>
	<circle fill="#00CD5E" cx="154.367" cy="148.731" r="8.681"/>
	<circle fill="#00CD5E" cx="180.037" cy="123.061" r="8.681"/>
	<circle fill="#00CD5E" cx="205.706" cy="97.392" r="8.682"/>
	<circle fill="#00CD5E" cx="231.377" cy="71.721" r="8.681"/>
</g>
<g>
	<path opacity="0.09" fill="#616161" enable-background="new    " d="M1918.766,760.834c0,0-240.496,18.957-206.29-239.547
		c27.669-209.064-271.193-127.818-275.196-297.803C1434.616,110.539,1675.9,118.892,1457.462,0l462.153,0.273L1918.766,760.834z"/>
	<path opacity="0.09" fill="#616161" enable-background="new    " d="M1918.998,689.566c0,0-214.933,0-167.193-187.131
		c50.405-197.619-245.773-123.201-249.021-287.033C1500.633,106.541,1687.168,86.271,1545.113,0l374.507,0.273L1918.998,689.566z"/>
	<g>
		<path opacity="0.9" fill="#00B9CF" enable-background="new    " d="M1920,658.013c0,0-182.483,24.588-142.524-184.572
			c27.485-143.859-138.597-106.328-204.24-209.23C1509.2,163.834,1705.547,87.804,1560.104,1l359.516-0.727L1920,658.013z"/>
	</g>
	<path opacity="0.9" fill="#00B9CF" enable-background="new    " d="M1860.174,256.845c0,33.04,26.525,59.869,59.441,60.385V196.463
		C1886.699,196.978,1860.174,223.805,1860.174,256.845z"/>
	<path opacity="0.9" fill="#00B9CF" enable-background="new    " d="M1919.5,0.273L1560.043,1
		c86.987,51.918,51.742,99.982,23.041,151.706c0.688,3.049,1.358,6.134,1.981,9.271c18.402,92.521,192.052,93.65,230.05,17.979
		c38-75.669,104.385-75.669,104.385-75.669V0.273L1919.5,0.273z"/>
	<path opacity="0.1" fill="#FFFFFF" enable-background="new    " d="M1726.115,0c-16.696,26.265-23.541,57.076-23.541,85.617
		c0,106.636,176.207,140.907,134.565,275.515c-55.521,179.474,82.479,174.388,82.479,174.388V0.273L1726.115,0z"/>
</g>
<g>
	<path fill="#25C9AC" d="M1176.435,797.737v-24.878c0-3.979,1.49-6.675,4.478-8.085c2.984-1.407,7.963-3.024,14.929-4.851
		c6.965-1.822,12.188-4.187,15.673-7.093c3.48-2.897,5.223-7.667,5.223-14.303c0-5.308-2.072-9.786-6.219-13.434
		c-4.146-3.648-9.041-5.477-14.677-5.477c-7.464,0-14.806,4.104-22.02,12.314c-7.215,8.21-13.229,12.312-18.034,12.312
		c-4.479,0-8.131-1.652-10.946-4.976c-2.822-3.315-4.229-7.626-4.229-12.937c0-11.941,5.929-21.768,17.788-29.479
		c11.854-7.712,24.337-11.567,37.441-11.567c17.079,0,31.303,4.853,42.663,14.555c11.357,9.704,17.043,22.602,17.043,38.687
		c0,13.436-3.882,24.38-11.635,32.838c-7.761,8.458-18.31,14.267-31.654,17.413v8.956c0,4.813-1.729,8.874-5.188,12.189
		c-3.462,3.319-7.742,4.976-12.849,4.976c-5.438,0-9.762-1.531-12.973-4.602C1178.038,807.234,1176.435,803.051,1176.435,797.737z
		 M1174.941,848.985c0-5.306,1.896-9.866,5.683-13.682c3.791-3.813,8.323-5.724,13.601-5.724c5.438,0,10.052,1.908,13.841,5.724
		c3.792,3.813,5.688,8.376,5.688,13.682c0,5.312-1.896,9.87-5.688,13.683c-3.789,3.813-8.403,5.724-13.841,5.724
		c-5.275,0-9.81-1.908-13.601-5.724C1176.834,858.855,1174.941,854.298,1174.941,848.985z"/>
</g>
<g opacity="0.5">
	<g>
		<path fill="#25C9AC" d="M1414.308,784.219h-0.008c-6.478-0.001-12.104-2.365-16.724-7.028c-4.615-4.664-6.957-10.344-6.957-16.878
			c0.001-6.541,2.342-12.22,6.957-16.878c4.617-4.664,10.237-7.026,16.706-7.026c6.494,0,12.185,2.362,16.954,7.023
			c4.78,4.675,7.202,10.355,7.202,16.88c0.006,6.521-2.417,12.201-7.202,16.884C1426.465,781.855,1420.769,784.219,1414.308,784.219
			z M1414.327,737.053c-6.334,0-11.799,2.3-16.288,6.837c-4.492,4.533-6.771,10.06-6.771,16.423c0,6.358,2.277,11.885,6.771,16.425
			c4.492,4.536,9.967,6.837,16.264,6.837l0.009,0.321v-0.321c6.285,0,11.828-2.303,16.479-6.841
			c4.655-4.554,7.012-10.08,7.007-16.422c0-6.346-2.356-11.87-7.007-16.418C1426.144,739.356,1420.603,737.053,1414.327,737.053z
			 M1414.303,693.111L1414.303,693.111c-6.791,0-11.803-2.056-14.893-6.111c-3.677-3.701-5.554-9.045-5.554-15.852v-52.026
			c0.003-11.092,1.746-18.447,5.188-21.859c3.417-3.409,13.118-6.772,28.842-9.994c15.564-3.188,26.464-9.489,32.392-18.73
			c5.95-9.274,8.971-19.363,8.971-29.986c0.002-15.187-5.101-27.494-15.159-36.587c-10.069-9.115-23.062-13.735-38.625-13.735
			c-12.83,0-23.901,2.864-32.902,8.511c-8.992,5.642-15.092,13.285-18.13,22.721c-3.143,9.72-6.28,15.671-9.598,18.193
			c-3.266,2.494-6.987,3.762-11.067,3.762c-5.616,0-10.437-1.976-14.327-5.871c-3.899-3.895-5.876-9.185-5.878-15.723
			c-0.002-19.753,9.613-36.567,28.583-49.983c18.927-13.39,39.763-20.177,61.925-20.178c28.306,0,52.186,8.09,70.972,24.043
			c18.795,15.957,28.325,36.499,28.327,61.054c-0.002,24.247-7.07,44.394-21.02,59.886c-13.895,15.436-33.117,25.76-57.146,30.692
			l-0.003,45.804c0.003,7.268-1.757,12.805-5.23,16.463C1426.49,691.255,1421.219,693.108,1414.303,693.111z M1415.461,487.58
			c15.726,0,28.866,4.679,39.059,13.9c10.201,9.224,15.373,21.694,15.372,37.069c0,10.749-3.054,20.954-9.071,30.333
			c-6.027,9.395-17.064,15.793-32.808,19.017c-15.597,3.194-25.188,6.498-28.515,9.816c-3.312,3.291-4.994,10.492-4.996,21.405
			v52.026c0,6.63,1.813,11.82,5.393,15.429c2.991,3.917,7.831,5.89,14.406,5.89c6.731-0.002,11.846-1.79,15.195-5.316
			c3.355-3.531,5.059-8.921,5.055-16.017l0.005-46.33l0.259-0.056c24.007-4.882,43.203-15.156,57.049-30.544
			c13.839-15.369,20.853-35.372,20.854-59.453c-0.003-24.354-9.456-44.732-28.101-60.562
			c-18.667-15.853-42.402-23.889-70.554-23.889c-22.027,0.001-42.735,6.75-61.552,20.061
			c-18.789,13.286-28.313,29.926-28.311,49.456c0,6.36,1.916,11.499,5.688,15.267c3.766,3.771,8.432,5.683,13.872,5.683
			c3.933,0,7.522-1.219,10.674-3.627c3.166-2.408,6.316-8.423,9.375-17.88c3.087-9.582,9.273-17.345,18.399-23.07
			C1391.321,490.475,1402.504,487.58,1415.461,487.58z"/>
	</g>
</g>
</svg>
