<?xml version="1.0" encoding="utf-8"?>
<!-- Generator: Adobe Illustrator 16.0.0, SVG Export Plug-In . SVG Version: 6.00 Build 0)  -->
<!DOCTYPE svg PUBLIC "-//W3C//DTD SVG 1.1//EN" "http://www.w3.org/Graphics/SVG/1.1/DTD/svg11.dtd">
<svg version="1.1" id="Layer_1" xmlns="http://www.w3.org/2000/svg" xmlns:xlink="http://www.w3.org/1999/xlink" x="0px" y="0px"
	 width="1920px" height="900px" viewBox="0 0 1920 900" enable-background="new 0 0 1920 900" xml:space="preserve">
<g>
	<path fill="#B7FFA6" d="M55.001,37.352c-18.515,0-36.854,0.753-55.001,2.207v0.447C18.146,38.552,36.488,37.8,55.001,37.8
		c375.953,0,681.816,305.862,681.816,681.816c0,62.421-8.439,122.906-24.225,180.384h0.464
		c15.771-57.479,24.207-117.965,24.207-180.384C737.265,343.416,431.2,37.352,55.001,37.352z"/>
	<path fill="#B7FFA6" d="M55.001,99.359c-18.532,0-36.877,0.82-55.001,2.42v0.447c18.124-1.602,36.469-2.421,55.001-2.421
		c341.76,0,619.801,278.046,619.801,619.811c0,56.663-7.65,111.57-21.959,163.753h0.464c14.298-52.186,21.94-107.092,21.94-163.753
		C675.247,377.606,397.007,99.359,55.001,99.359z"/>
	<path fill="#B7FFA6" d="M55.001,161.371c-18.559,0-36.903,0.919-55.001,2.697v0.447c18.098-1.779,36.442-2.699,55.001-2.699
		c307.573,0,557.802,250.229,557.802,557.8c0,45.016-5.368,88.799-15.483,130.753h0.459c10.107-41.955,15.472-85.738,15.472-130.753
		C613.248,411.799,362.82,161.371,55.001,161.371z"/>
	<path fill="#B7FFA6" d="M55.001,223.376c-18.588,0-36.938,1.036-55.001,3.036v0.45c18.062-2.003,36.413-3.039,55.001-3.039
		c273.383,0,495.797,222.412,495.797,495.793c0,45.242-6.112,89.08-17.521,130.753h0.463
		c11.397-41.676,17.504-85.513,17.504-130.753C551.244,445.989,328.63,223.376,55.001,223.376z"/>
	<path fill="#B7FFA6" d="M55.001,285.389c-18.628,0-36.984,1.181-55.001,3.468v0.449c18.016-2.289,36.373-3.472,55.001-3.472
		c239.186,0,433.778,194.594,433.778,433.78c0,55.247-10.389,108.112-29.303,156.753h0.479
		c18.896-48.646,29.271-101.51,29.271-156.753C489.227,480.182,294.435,285.389,55.001,285.389z"/>
	<path fill="#B7FFA6" d="M55.001,347.404c-18.685,0-37.049,1.392-55.001,4.062v0.45c17.952-2.674,36.315-4.064,55.001-4.064
		c204.992,0,371.766,166.772,371.766,371.766c0,55.974-12.436,109.097-34.685,156.753h0.492
		c22.222-47.666,34.64-100.786,34.64-156.753C427.214,514.379,260.24,347.404,55.001,347.404z"/>
	<path fill="#B7FFA6" d="M346.947,824.462c11.81-32.765,18.261-68.062,18.261-104.846c0-171.046-139.157-310.202-310.205-310.202
		c-18.766,0-37.146,1.678-55.001,4.886v0.454c17.854-3.213,36.234-4.894,55.001-4.894c170.801,0,309.758,138.956,309.758,309.756
		c0,36.29-6.289,71.136-17.812,103.521L346.947,824.462L346.947,824.462z"/>
	<path fill="#B7FFA6" d="M55.001,471.421c-18.896,0-37.304,2.133-55.001,6.151v0.456c17.695-4.025,36.104-6.162,55.001-6.162
		c136.615,0,247.759,111.142,247.759,247.75c0,25.555-3.899,50.212-11.118,73.421h0.467c7.205-23.213,11.099-47.868,11.099-73.421
		C303.206,582.76,191.863,471.421,55.001,471.421z"/>
	<path fill="#B7FFA6" d="M55.001,533.425c-19.14,0-37.61,2.905-55.001,8.294v0.467c17.388-5.401,35.859-8.313,55.001-8.313
		c102.42,0,185.746,83.325,185.746,185.745c0,26.067-5.416,50.888-15.152,73.421h0.488c9.711-22.541,15.109-47.359,15.109-73.421
		C241.194,616.95,157.667,533.425,55.001,533.425z"/>
	<path fill="#B7FFA6" d="M55.001,595.431c-19.739,0-38.412,4.637-55.001,12.866v0.499c16.578-8.263,35.255-12.919,55.001-12.919
		c68.229,0,123.735,55.509,123.735,123.737c0,27.467-9,52.868-24.198,73.421h0.552c15.137-20.581,24.094-45.973,24.094-73.421
		C179.184,651.14,123.476,595.431,55.001,595.431z"/>
</g>
<g>
	<path opacity="0.09" fill="#616161" enable-background="new    " d="M554.439,808.063c-29.038-39.722-52.706-62.356-110.301-69.372
		c-17.81-2.169-37.177-2.708-57.563-1.616c-15.576,0.833-30.117,0.463-43.214-1.132l-0.019-0.003
		c-68.013-8.284-94.479-48.812-127.977-100.101c-19.259-29.486-39.171-59.99-68.468-85.877
		c-34.627-30.598-75.72-48.426-125.63-54.505C13.996,494.572,6.909,494.099,0,494.01v290.94l424.421,89.808
		C510.17,898.576,574.443,835.426,554.439,808.063z"/>
	<path fill="#25C9AC" d="M539.643,813.933c-23.73-36.955-69.855-66.682-157.967-61.965
		c-233.11,12.477-173.23-217.595-372.464-241.86C6.02,509.719,2.991,509.443,0,509.25v298.688
		c125.446-11.249,255.554,58.232,356.001,75.773c43.436,7.305,107.562,0.122,149.687-14.896
		C531.198,857.824,550.633,839.041,539.643,813.933z"/>
	<path opacity="0.5" fill="#21B59B" enable-background="new    " d="M18.584,662.476c-6.24-0.76-12.426-1.242-18.584-1.47v146.929
		c103.591-9.29,210.354,36.467,300.979,62.574C214.983,786.408,184.249,682.654,18.584,662.476z"/>
</g>
<g opacity="0.5">
	<circle fill="#00CD5E" cx="1649.959" cy="686.998" r="4.927"/>
	<circle fill="#00CD5E" cx="1670.566" cy="686.998" r="4.928"/>
	<circle fill="#00CD5E" cx="1691.17" cy="686.998" r="4.928"/>
	<circle fill="#00CD5E" cx="1711.777" cy="686.998" r="4.928"/>
	<circle fill="#00CD5E" cx="1732.383" cy="686.998" r="4.928"/>
	<circle fill="#00CD5E" cx="1752.988" cy="686.998" r="4.927"/>
	<circle fill="#00CD5E" cx="1773.594" cy="686.998" r="4.927"/>
	<circle fill="#00CD5E" cx="1649.959" cy="704.915" r="4.927"/>
	<circle fill="#00CD5E" cx="1670.566" cy="704.915" r="4.928"/>
	<circle fill="#00CD5E" cx="1691.17" cy="704.915" r="4.928"/>
	<circle fill="#00CD5E" cx="1711.777" cy="704.915" r="4.928"/>
	<circle fill="#00CD5E" cx="1732.383" cy="704.915" r="4.928"/>
	<circle fill="#00CD5E" cx="1752.988" cy="704.915" r="4.927"/>
	<circle fill="#00CD5E" cx="1773.594" cy="704.915" r="4.927"/>
	<circle fill="#00CD5E" cx="1649.959" cy="722.834" r="4.927"/>
	<circle fill="#00CD5E" cx="1670.566" cy="722.834" r="4.928"/>
	<circle fill="#00CD5E" cx="1691.17" cy="722.834" r="4.928"/>
	<circle fill="#00CD5E" cx="1711.777" cy="722.834" r="4.928"/>
	<circle fill="#00CD5E" cx="1732.383" cy="722.834" r="4.928"/>
	<circle fill="#00CD5E" cx="1752.988" cy="722.834" r="4.927"/>
	<circle fill="#00CD5E" cx="1773.594" cy="722.834" r="4.927"/>
	<circle fill="#00CD5E" cx="1649.959" cy="740.752" r="4.927"/>
	<circle fill="#00CD5E" cx="1670.566" cy="740.752" r="4.928"/>
	<circle fill="#00CD5E" cx="1691.17" cy="740.752" r="4.928"/>
	<circle fill="#00CD5E" cx="1711.777" cy="740.752" r="4.928"/>
	<circle fill="#00CD5E" cx="1732.383" cy="740.752" r="4.928"/>
	<circle fill="#00CD5E" cx="1752.988" cy="740.752" r="4.927"/>
	<circle fill="#00CD5E" cx="1773.594" cy="740.752" r="4.927"/>
	<circle fill="#00CD5E" cx="1649.959" cy="758.669" r="4.927"/>
	<circle fill="#00CD5E" cx="1670.566" cy="758.669" r="4.928"/>
	<circle fill="#00CD5E" cx="1691.17" cy="758.669" r="4.928"/>
	<circle fill="#00CD5E" cx="1711.777" cy="758.669" r="4.928"/>
	<circle fill="#00CD5E" cx="1732.383" cy="758.669" r="4.928"/>
	<circle fill="#00CD5E" cx="1752.988" cy="758.669" r="4.927"/>
	<circle fill="#00CD5E" cx="1773.594" cy="758.669" r="4.927"/>
	<circle fill="#00CD5E" cx="1649.959" cy="776.587" r="4.927"/>
	<circle fill="#00CD5E" cx="1670.566" cy="776.587" r="4.928"/>
	<circle fill="#00CD5E" cx="1691.17" cy="776.587" r="4.928"/>
	<circle fill="#00CD5E" cx="1711.777" cy="776.587" r="4.928"/>
	<circle fill="#00CD5E" cx="1732.383" cy="776.587" r="4.928"/>
	<circle fill="#00CD5E" cx="1752.988" cy="776.587" r="4.927"/>
	<circle fill="#00CD5E" cx="1773.594" cy="776.587" r="4.927"/>
	<circle fill="#00CD5E" cx="1649.959" cy="794.505" r="4.927"/>
	<circle fill="#00CD5E" cx="1670.566" cy="794.505" r="4.928"/>
	<circle fill="#00CD5E" cx="1691.17" cy="794.505" r="4.928"/>
	<circle fill="#00CD5E" cx="1711.777" cy="794.505" r="4.928"/>
	<circle fill="#00CD5E" cx="1732.383" cy="794.505" r="4.928"/>
	<circle fill="#00CD5E" cx="1752.988" cy="794.505" r="4.927"/>
	<circle fill="#00CD5E" cx="1773.594" cy="794.505" r="4.927"/>
	<circle fill="#00CD5E" cx="1649.959" cy="812.423" r="4.927"/>
	<circle fill="#00CD5E" cx="1670.566" cy="812.423" r="4.928"/>
	<circle fill="#00CD5E" cx="1691.17" cy="812.423" r="4.928"/>
	<circle fill="#00CD5E" cx="1711.777" cy="812.423" r="4.928"/>
	<circle fill="#00CD5E" cx="1732.383" cy="812.423" r="4.928"/>
	<circle fill="#00CD5E" cx="1752.988" cy="812.423" r="4.927"/>
	<circle fill="#00CD5E" cx="1773.594" cy="812.423" r="4.927"/>
</g>
<g>
	<path fill="#00CD5E" d="M1323.337,839.69c-5.156,0.088-9.423-4.033-9.516-9.187c-0.087-5.156,4.034-9.424,9.188-9.515
		c5.156-0.088,9.424,4.033,9.515,9.188C1332.613,835.334,1328.49,839.6,1323.337,839.69z M1323.087,825.325
		c-2.768,0.048-4.979,2.338-4.93,5.104c0.048,2.767,2.339,4.978,5.103,4.929c2.766-0.049,4.979-2.338,4.93-5.103
		C1328.142,827.487,1325.852,825.276,1323.087,825.325z"/>
	<path opacity="0.7" fill="#00B9CF" enable-background="new    " d="M761.613,159.443c-5.156,0.088-9.423-4.033-9.514-9.188
		c-0.089-5.155,4.033-9.423,9.188-9.514c5.155-0.088,9.423,4.033,9.515,9.188C770.888,155.086,766.767,159.353,761.613,159.443z
		 M761.363,145.078c-2.767,0.049-4.978,2.338-4.929,5.104c0.048,2.767,2.339,4.978,5.103,4.929c2.766-0.049,4.979-2.338,4.931-5.104
		C766.416,147.24,764.127,145.029,761.363,145.078z"/>
	<path fill="#00CD5E" d="M1675.998,486.071c-16.021,0.278-29.282-12.527-29.561-28.551c-0.278-16.019,12.529-29.28,28.549-29.561
		c16.021-0.278,29.283,12.528,29.562,28.551C1704.827,472.532,1692.021,485.795,1675.998,486.071z M1675.222,441.429
		c-8.595,0.147-15.464,7.263-15.315,15.858c0.15,8.595,7.264,15.464,15.856,15.312c8.597-0.148,15.469-7.261,15.317-15.854
		C1690.933,448.15,1683.818,441.279,1675.222,441.429z"/>
	<path opacity="0.5" fill="#00B9CF" enable-background="new    " d="M1478.352,729.905l0.002,16.501h-16.504
		c-4.055,0-7.336,3.282-7.333,7.334c-0.001,4.055,3.281,7.336,7.333,7.333l16.498-0.002l0.004,16.502
		c-0.002,4.055,3.28,7.337,7.335,7.337c4.048-0.001,7.33-3.283,7.333-7.334v-16.504l16.502,0.003
		c4.047,0.001,7.333-3.286,7.332-7.333c0-4.054-3.282-7.336-7.336-7.336l-16.501-0.004l0.001-16.496
		c0.002-4.052-3.28-7.334-7.334-7.334C1481.633,722.568,1478.348,725.854,1478.352,729.905z"/>
	<path fill="#00CD5E" d="M1700.203,577.61l-13.962,13.961l-13.961-13.961c-0.973-0.973-2.548-0.973-3.521,0
		c-0.973,0.974-0.973,2.549,0,3.521l13.962,13.96l-13.962,13.962c-0.973,0.972-0.973,2.548,0,3.521c0.974,0.973,2.549,0.972,3.521,0
		l13.961-13.962l13.962,13.963c0.972,0.972,2.549,0.972,3.521-0.001s0.972-2.549-0.001-3.521l-13.96-13.963l13.96-13.959
		c0.973-0.973,0.974-2.547,0-3.521C1702.753,576.636,1701.175,576.637,1700.203,577.61z"/>
	<path opacity="0.3" fill="#FF6761" enable-background="new    " d="M347.578,204.703v14.778l-14.78,0.001
		c-1.029,0-1.863,0.833-1.863,1.863s0.835,1.863,1.863,1.862l14.779-0.001v14.78c0,1.029,0.834,1.863,1.863,1.864
		c1.029-0.001,1.862-0.835,1.863-1.864v-14.779l14.78,0.001c1.026,0,1.862-0.836,1.862-1.863c0-1.03-0.835-1.863-1.864-1.863
		l-14.779-0.001v-14.778c0.001-1.029-0.833-1.864-1.863-1.863C348.411,202.838,347.577,203.674,347.578,204.703z"/>
</g>
<g>
	
		<linearGradient id="SVGID_1_" gradientUnits="userSpaceOnUse" x1="837.157" y1="101.7805" x2="1025.4221" y2="101.7805" gradientTransform="matrix(1 0 0 -1 24.9448 891.3589)">
		<stop  offset="0" style="stop-color:#00CD5E"/>
		<stop  offset="1" style="stop-color:#FFFFFF"/>
	</linearGradient>
	<path fill="url(#SVGID_1_)" d="M868.592,883.712L868.592,883.712c-3.586,0-6.49-2.904-6.49-6.491v-29.862
		c0-3.585,2.904-6.493,6.487-6.493h23.375c3.583,0,6.491-2.904,6.491-6.491v-23.368c0-3.59,2.908-6.493,6.492-6.493l23.374-0.003
		c3.583,0,6.488-2.904,6.488-6.491v-23.371c0-3.588,2.907-6.491,6.494-6.491h23.371c3.584,0,6.488-2.909,6.488-6.493v-23.367
		c0-3.59,2.909-6.492,6.493-6.497h23.371c3.587,0,6.496-2.904,6.496-6.491v-23.371c0-3.584,2.902-6.491,6.489-6.491h29.864
		c3.584,0,6.489,2.904,6.489,6.491l0,0c0,3.585-2.905,6.493-6.489,6.493h-16.881c-3.589,0-6.49,2.906-6.49,6.491v23.368
		c0,3.591-2.908,6.493-6.493,6.493l-23.373,0.003c-3.584,0-6.492,2.904-6.492,6.493v23.369c0,3.588-2.903,6.491-6.491,6.491h-23.37
		c-3.585,0-6.491,2.909-6.491,6.493V811c0,3.59-2.906,6.492-6.491,6.496H917.93c-3.584,0-6.492,2.904-6.492,6.491v23.371
		c0,3.584-2.902,6.491-6.49,6.491h-23.371c-3.587,0-6.492,2.907-6.492,6.491v16.88C875.085,880.806,872.178,883.712,868.592,883.712
		z"/>
</g>
<g>
	
		<linearGradient id="SVGID_2_" gradientUnits="userSpaceOnUse" x1="992.1956" y1="732.5837" x2="1089.0881" y2="732.5837" gradientTransform="matrix(1 0 0 -1 24.9448 891.3589)">
		<stop  offset="0" style="stop-color:#00B9CF"/>
		<stop  offset="1" style="stop-color:#FFFFFF"/>
	</linearGradient>
	<path fill="url(#SVGID_2_)" d="M1020.484,207.22L1020.484,207.22c-1.846,0-3.343-1.497-3.343-3.344V188.51
		c0-1.847,1.497-3.344,3.343-3.344h12.026c1.846,0,3.341-1.495,3.341-3.34V169.8c0-1.845,1.497-3.342,3.339-3.342h12.031
		c1.845,0,3.34-1.495,3.34-3.34V151.09c0-1.845,1.495-3.341,3.341-3.341h12.027c1.848,0,3.343-1.496,3.343-3.342V132.38
		c0-1.846,1.495-3.341,3.341-3.341h12.027c1.846,0,3.342-1.497,3.342-3.342v-12.028c0-1.845,1.495-3.34,3.34-3.34h15.371
		c1.845,0,3.34,1.495,3.34,3.34l0,0c0,1.847-1.495,3.342-3.34,3.342h-8.688c-1.847,0-3.341,1.496-3.341,3.342v12.027
		c0,1.846-1.497,3.341-3.343,3.341h-12.027c-1.846,0-3.34,1.496-3.34,3.342v12.027c0,1.846-1.497,3.342-3.342,3.342h-12.028
		c-1.845,0-3.342,1.493-3.342,3.342V169.8c0,1.847-1.495,3.342-3.341,3.342h-12.027c-1.847,0-3.341,1.497-3.341,3.342v12.028
		c0,1.845-1.497,3.34-3.344,3.34h-12.026c-1.846,0-3.341,1.497-3.341,3.342v8.686C1023.823,205.723,1022.325,207.22,1020.484,207.22
		z"/>
</g>
<g opacity="0.3">
	<path fill="#00CD5E" d="M0.907,34.333c-0.17-0.169-0.348-0.321-0.525-0.475v13.228c0.179-0.151,0.355-0.307,0.525-0.476
		C4.297,43.22,4.297,37.723,0.907,34.333z"/>
	<circle fill="#00CD5E" cx="20.438" cy="14.802" r="8.682"/>
	<circle fill="#00CD5E" cx="17.09" cy="62.793" r="8.681"/>
	<circle fill="#00CD5E" cx="42.76" cy="37.124" r="8.681"/>
	<circle fill="#00CD5E" cx="68.429" cy="11.454" r="8.681"/>
	<circle fill="#00CD5E" cx="13.742" cy="110.784" r="8.682"/>
	<circle fill="#00CD5E" cx="39.411" cy="85.115" r="8.681"/>
	<circle fill="#00CD5E" cx="65.081" cy="59.445" r="8.681"/>
	<circle fill="#00CD5E" cx="90.751" cy="33.775" r="8.681"/>
	<path fill="#00CD5E" d="M118.667-0.273h-4.494c-1.425,0.381-2.773,1.121-3.891,2.238c-3.393,3.392-3.391,8.89-0.002,12.278
		c3.393,3.392,8.888,3.392,12.278-0.001c3.391-3.389,3.392-8.886-0.001-12.277C121.442,0.849,120.093,0.108,118.667-0.273z"/>
	<circle fill="#00CD5E" cx="10.394" cy="158.775" r="8.681"/>
	<circle fill="#00CD5E" cx="36.064" cy="133.106" r="8.682"/>
	<circle fill="#00CD5E" cx="61.733" cy="107.436" r="8.681"/>
	<circle fill="#00CD5E" cx="87.403" cy="81.766" r="8.681"/>
	<circle fill="#00CD5E" cx="113.073" cy="56.097" r="8.681"/>
	<circle fill="#00CD5E" cx="138.742" cy="30.427" r="8.682"/>
	<path fill="#00CD5E" d="M157.347-0.273c-2.418,3.39-2.115,8.125,0.928,11.168c3.392,3.391,8.888,3.391,12.276,0.001
		c3.042-3.043,3.345-7.778,0.925-11.169H157.347z"/>
	<path fill="#00CD5E" d="M38.854,174.958c3.391,3.391,3.392,8.889,0,12.279c-3.39,3.39-8.887,3.387-12.275-0.003
		c-3.39-3.389-3.392-8.886-0.002-12.275C29.967,171.568,35.465,171.569,38.854,174.958z"/>
	<circle fill="#00CD5E" cx="58.385" cy="155.427" r="8.682"/>
	<circle fill="#00CD5E" cx="84.054" cy="129.758" r="8.681"/>
	<circle fill="#00CD5E" cx="109.724" cy="104.088" r="8.682"/>
	<circle fill="#00CD5E" cx="135.394" cy="78.419" r="8.681"/>
	<circle fill="#00CD5E" cx="161.064" cy="52.749" r="8.681"/>
	<circle fill="#00CD5E" cx="186.734" cy="27.078" r="8.681"/>
	<circle fill="#00CD5E" cx="55.037" cy="203.418" r="8.68"/>
	<circle fill="#00CD5E" cx="80.706" cy="177.749" r="8.681"/>
	<circle fill="#00CD5E" cx="106.376" cy="152.079" r="8.681"/>
	<circle fill="#00CD5E" cx="132.046" cy="126.409" r="8.682"/>
	<circle fill="#00CD5E" cx="157.715" cy="100.74" r="8.681"/>
	<circle fill="#00CD5E" cx="183.385" cy="75.07" r="8.681"/>
	<circle fill="#00CD5E" cx="209.055" cy="49.4" r="8.681"/>
	<circle fill="#00CD5E" cx="77.359" cy="225.74" r="8.681"/>
	<circle fill="#00CD5E" cx="103.028" cy="200.07" r="8.682"/>
	<circle fill="#00CD5E" cx="128.698" cy="174.401" r="8.681"/>
	<circle fill="#00CD5E" cx="154.367" cy="148.731" r="8.681"/>
	<circle fill="#00CD5E" cx="180.037" cy="123.061" r="8.681"/>
	<circle fill="#00CD5E" cx="205.706" cy="97.392" r="8.682"/>
	<circle fill="#00CD5E" cx="231.377" cy="71.721" r="8.681"/>
</g>
<g>
	<path opacity="0.09" fill="#616161" enable-background="new    " d="M1918.766,760.834c0,0-240.496,18.957-206.29-239.547
		c27.669-209.067-271.193-127.821-275.196-297.803C1434.619,110.539,1675.9,118.892,1457.462,0l462.156,0.273L1918.766,760.834z"/>
	<path opacity="0.09" fill="#616161" enable-background="new    " d="M1918.998,689.566c0,0-214.93,0-167.193-187.131
		c50.405-197.619-245.773-123.201-249.02-287.033C1500.633,106.541,1687.168,86.271,1545.113,0l374.507,0.273L1918.998,689.566z"/>
	<g>
		<path opacity="0.9" fill="#00B9CF" enable-background="new    " d="M1920,658.013c0,0-182.483,24.588-142.524-184.572
			c27.485-143.859-138.597-106.328-204.24-209.23C1509.203,163.834,1705.547,87.804,1560.104,1l359.516-0.727L1920,658.013z"/>
	</g>
	<path opacity="0.9" fill="#00B9CF" enable-background="new    " d="M1860.174,256.845c0,33.04,26.528,59.869,59.444,60.385V196.463
		C1886.702,196.978,1860.174,223.805,1860.174,256.845z"/>
	<path opacity="0.9" fill="#00B9CF" enable-background="new    " d="M1919.5,0.273L1560.043,1
		c86.99,51.918,51.745,99.982,23.041,151.706c0.688,3.049,1.361,6.134,1.984,9.268c18.402,92.521,192.052,93.653,230.05,17.982
		c38-75.669,104.382-75.669,104.382-75.669V0.273z"/>
	<path opacity="0.1" fill="#FFFFFF" enable-background="new    " d="M1726.115,0c-16.697,26.262-23.541,57.076-23.541,85.617
		c0,106.636,176.207,140.907,134.565,275.512c-55.519,179.474,82.479,174.388,82.479,174.388V0.273L1726.115,0z"/>
</g>
</svg>
