<?xml version="1.0" encoding="utf-8"?>
<!-- Generator: Adobe Illustrator 16.0.0, SVG Export Plug-In . SVG Version: 6.00 Build 0)  -->
<!DOCTYPE svg PUBLIC "-//W3C//DTD SVG 1.1//EN" "http://www.w3.org/Graphics/SVG/1.1/DTD/svg11.dtd">
<svg version="1.1" id="Layer_1" xmlns="http://www.w3.org/2000/svg" xmlns:xlink="http://www.w3.org/1999/xlink" x="0px" y="0px"
	 width="1920px" height="900px" viewBox="0 0 1920 900" enable-background="new 0 0 1920 900" xml:space="preserve">
<g>
	<path fill="#006ABD" d="M1176.435,797.737v-24.878c0-3.979,1.49-6.675,4.478-8.085c2.984-1.407,7.964-3.024,14.93-4.851
		c6.965-1.822,12.188-4.188,15.673-7.094c3.479-2.896,5.223-7.667,5.223-14.303c0-5.308-2.071-9.786-6.219-13.434
		c-4.146-3.648-9.041-5.478-14.677-5.478c-7.464,0-14.807,4.104-22.021,12.314c-7.215,8.21-13.229,12.312-18.034,12.312
		c-4.479,0-8.131-1.651-10.945-4.976c-2.822-3.315-4.229-7.626-4.229-12.938c0-11.94,5.929-21.768,17.788-29.479
		c11.854-7.712,24.337-11.567,37.441-11.567c17.078,0,31.303,4.854,42.662,14.556c11.357,9.703,17.043,22.602,17.043,38.687
		c0,13.436-3.882,24.38-11.635,32.838c-7.761,8.458-18.31,14.268-31.654,17.413v8.956c0,4.813-1.729,8.874-5.188,12.189
		c-3.462,3.318-7.742,4.976-12.849,4.976c-5.438,0-9.763-1.531-12.974-4.602C1178.037,807.234,1176.435,803.052,1176.435,797.737z
		 M1174.941,848.985c0-5.306,1.896-9.866,5.683-13.682c3.791-3.813,8.323-5.725,13.602-5.725c5.438,0,10.052,1.908,13.841,5.725
		c3.792,3.812,5.688,8.376,5.688,13.682c0,5.312-1.896,9.87-5.688,13.683c-3.789,3.813-8.403,5.725-13.841,5.725
		c-5.275,0-9.811-1.908-13.602-5.725C1176.834,858.855,1174.941,854.299,1174.941,848.985z"/>
</g>
<g opacity="0.5">
	<g>
		<path fill="#006ABD" d="M1414.308,784.219h-0.008c-6.478-0.001-12.104-2.365-16.724-7.028c-4.615-4.664-6.957-10.344-6.957-16.878
			c0.001-6.541,2.342-12.22,6.957-16.878c4.617-4.664,10.237-7.026,16.706-7.026c6.494,0,12.185,2.362,16.954,7.023
			c4.78,4.675,7.202,10.355,7.202,16.88c0.006,6.521-2.417,12.201-7.202,16.884C1426.465,781.855,1420.769,784.219,1414.308,784.219
			z M1414.327,737.053c-6.334,0-11.799,2.3-16.288,6.837c-4.492,4.533-6.771,10.06-6.771,16.423c0,6.358,2.277,11.885,6.771,16.425
			c4.492,4.536,9.967,6.837,16.264,6.837l0.009,0.321v-0.321c6.285,0,11.828-2.303,16.479-6.841
			c4.655-4.554,7.012-10.08,7.007-16.422c0-6.346-2.356-11.87-7.007-16.418C1426.144,739.356,1420.603,737.053,1414.327,737.053z
			 M1414.303,693.111L1414.303,693.111c-6.791,0-11.803-2.056-14.893-6.111c-3.677-3.701-5.554-9.045-5.554-15.852v-52.026
			c0.003-11.092,1.746-18.447,5.188-21.859c3.417-3.409,13.118-6.772,28.842-9.994c15.564-3.188,26.464-9.489,32.392-18.73
			c5.95-9.274,8.971-19.363,8.971-29.986c0.002-15.187-5.101-27.494-15.159-36.587c-10.069-9.115-23.062-13.735-38.625-13.735
			c-12.83,0-23.901,2.864-32.902,8.511c-8.992,5.642-15.092,13.285-18.13,22.721c-3.143,9.72-6.28,15.671-9.598,18.193
			c-3.266,2.494-6.987,3.762-11.067,3.762c-5.616,0-10.437-1.976-14.327-5.871c-3.899-3.895-5.876-9.185-5.878-15.723
			c-0.002-19.753,9.613-36.567,28.583-49.983c18.927-13.39,39.763-20.177,61.925-20.178c28.306,0,52.186,8.09,70.972,24.043
			c18.795,15.957,28.325,36.499,28.327,61.054c-0.002,24.247-7.07,44.394-21.02,59.886c-13.895,15.436-33.117,25.76-57.146,30.692
			l-0.003,45.804c0.003,7.268-1.757,12.805-5.23,16.463C1426.49,691.255,1421.219,693.108,1414.303,693.111z M1415.461,487.58
			c15.726,0,28.866,4.679,39.059,13.9c10.201,9.224,15.373,21.694,15.372,37.069c0,10.749-3.054,20.954-9.071,30.333
			c-6.027,9.395-17.064,15.793-32.808,19.017c-15.597,3.194-25.188,6.498-28.515,9.816c-3.312,3.291-4.994,10.492-4.996,21.405
			v52.026c0,6.63,1.813,11.82,5.393,15.429c2.991,3.917,7.831,5.89,14.406,5.89c6.731-0.002,11.846-1.79,15.195-5.316
			c3.355-3.531,5.059-8.921,5.055-16.017l0.005-46.33l0.259-0.056c24.007-4.882,43.203-15.156,57.049-30.544
			c13.839-15.369,20.853-35.372,20.854-59.453c-0.003-24.354-9.456-44.732-28.101-60.562
			c-18.667-15.853-42.402-23.889-70.554-23.889c-22.027,0.001-42.735,6.75-61.552,20.061
			c-18.789,13.286-28.313,29.926-28.311,49.456c0,6.36,1.916,11.499,5.688,15.267c3.766,3.771,8.432,5.683,13.872,5.683
			c3.933,0,7.522-1.219,10.674-3.627c3.166-2.408,6.316-8.423,9.375-17.88c3.087-9.582,9.273-17.345,18.399-23.07
			C1391.321,490.475,1402.504,487.58,1415.461,487.58z"/>
	</g>
</g>
<g>
	<path fill="#FDE6DC" d="M55.001,37.352c-18.519,0-36.854,0.753-55.001,2.207v0.443c18.146-1.45,36.487-2.203,55.001-2.203
		c375.949,0,681.812,305.862,681.812,681.816c0,62.421-8.438,122.906-24.225,180.384h0.464
		c15.771-57.479,24.207-117.965,24.207-180.384C737.265,343.416,431.198,37.352,55.001,37.352z"/>
	<path fill="#FDE6DC" d="M55.001,99.359c-18.532,0-36.877,0.82-55.001,2.42v0.447c18.124-1.604,36.469-2.421,55.001-2.421
		c341.76,0,619.801,278.046,619.801,619.811c0,56.663-7.65,111.57-21.959,163.753h0.464
		c14.298-52.186,21.938-107.092,21.938-163.753C675.243,377.606,397.007,99.359,55.001,99.359z"/>
	<path fill="#FDE6DC" d="M55.001,161.371c-18.562,0-36.903,0.919-55.001,2.697v0.447c18.098-1.779,36.438-2.699,55.001-2.699
		c307.573,0,557.802,250.229,557.802,557.8c0,45.02-5.368,88.799-15.483,130.753h0.459c10.107-41.955,15.472-85.734,15.472-130.753
		C613.244,411.802,362.82,161.371,55.001,161.371z"/>
	<path fill="#FDE6DC" d="M55.001,223.376c-18.588,0-36.938,1.036-55.001,3.036v0.45c18.062-2.003,36.413-3.039,55.001-3.039
		c273.383,0,495.797,222.412,495.797,495.793c0,45.242-6.112,89.08-17.521,130.753h0.463
		c11.397-41.676,17.504-85.513,17.504-130.753C551.24,445.989,328.63,223.376,55.001,223.376z"/>
	<path fill="#FDE6DC" d="M55.001,285.389c-18.628,0-36.984,1.181-55.001,3.468v0.449c18.016-2.289,36.373-3.476,55.001-3.476
		c239.186,0,433.774,194.598,433.774,433.78c0,55.247-10.389,108.112-29.303,156.753h0.479
		c18.896-48.646,29.271-101.51,29.271-156.753C489.227,480.182,294.435,285.389,55.001,285.389z"/>
	<path fill="#FDE6DC" d="M55.001,347.404c-18.688,0-37.049,1.396-55.001,4.062v0.446c17.952-2.674,36.312-4.062,55.001-4.062
		c204.992,0,371.766,166.771,371.766,371.766c0,55.978-12.438,109.101-34.685,156.753h0.492
		c22.222-47.666,34.64-100.782,34.64-156.753C427.214,514.383,260.24,347.404,55.001,347.404z"/>
	<path fill="#FDE6DC" d="M346.947,824.466c11.812-32.769,18.265-68.062,18.265-104.85c0-171.046-139.157-310.202-310.205-310.202
		c-18.77,0-37.146,1.682-55.001,4.89v0.454c17.854-3.214,36.23-4.896,55.001-4.896c170.801,0,309.758,138.956,309.758,309.756
		c0,36.29-6.289,71.139-17.812,103.521L346.947,824.466L346.947,824.466z"/>
	<path fill="#FDE6DC" d="M55.001,471.425c-18.896,0-37.308,2.133-55.001,6.147v0.456c17.691-4.021,36.104-6.162,55.001-6.162
		c136.615,0,247.759,111.146,247.759,247.75c0,25.559-3.899,50.212-11.118,73.421h0.467c7.205-23.213,11.103-47.864,11.103-73.421
		C303.206,582.76,191.863,471.425,55.001,471.425z"/>
	<path fill="#FDE6DC" d="M55.001,533.427c-19.144,0-37.61,2.901-55.001,8.294v0.467c17.388-5.401,35.855-8.312,55.001-8.312
		c102.42,0,185.746,83.322,185.746,185.742c0,26.067-5.416,50.892-15.152,73.423h0.488c9.711-22.541,15.105-47.357,15.105-73.423
		C241.194,616.95,157.667,533.427,55.001,533.427z"/>
	<path fill="#FDE6DC" d="M55.001,595.431c-19.739,0-38.412,4.637-55.001,12.866v0.499c16.578-8.267,35.255-12.919,55.001-12.919
		c68.229,0,123.731,55.509,123.731,123.733c0,27.471-9,52.868-24.194,73.421h0.552c15.137-20.577,24.094-45.973,24.094-73.421
		C179.184,651.14,123.476,595.431,55.001,595.431z"/>
</g>
<g>
	<path opacity="0.09" fill="#616161" enable-background="new    " d="M554.439,808.063c-29.038-39.722-52.706-62.356-110.301-69.372
		c-17.812-2.169-37.177-2.708-57.562-1.616c-15.576,0.833-30.117,0.463-43.218-1.132l-0.019-0.003
		c-68.013-8.284-94.479-48.812-127.979-100.101c-19.261-29.486-39.173-59.99-68.47-85.877c-34.627-30.602-75.72-48.43-125.63-54.509
		c-7.27-0.884-14.354-1.354-21.266-1.443V784.95l424.42,89.812C510.17,898.576,574.443,835.427,554.439,808.063z"/>
	<path fill="#FF6761" d="M539.643,813.933c-23.73-36.955-69.855-66.682-157.967-61.965
		c-233.11,12.477-173.23-217.599-372.464-241.86C6.02,509.719,2.991,509.443,0,509.25v298.688
		c125.442-11.249,255.554,58.232,356.001,75.773c43.436,7.305,107.562,0.122,149.687-14.896
		C531.198,857.824,550.633,839.041,539.643,813.933z"/>
	<path opacity="0.5" fill="#ED605A" enable-background="new    " d="M18.584,662.476c-6.24-0.76-12.426-1.242-18.584-1.47v146.929
		c103.591-9.29,210.354,36.467,300.979,62.574C214.983,786.408,184.249,682.654,18.584,662.476z"/>
</g>
<g opacity="0.5">
	<circle fill="#006ABD" cx="1649.644" cy="687.188" r="4.927"/>
	<circle fill="#006ABD" cx="1670.25" cy="687.188" r="4.928"/>
	<circle fill="#006ABD" cx="1690.855" cy="687.188" r="4.927"/>
	<circle fill="#006ABD" cx="1711.461" cy="687.188" r="4.928"/>
	<circle fill="#006ABD" cx="1732.067" cy="687.188" r="4.928"/>
	<circle fill="#006ABD" cx="1752.672" cy="687.188" r="4.928"/>
	<circle fill="#006ABD" cx="1773.278" cy="687.188" r="4.928"/>
	<circle fill="#006ABD" cx="1649.644" cy="705.105" r="4.927"/>
	<circle fill="#006ABD" cx="1670.25" cy="705.105" r="4.928"/>
	<circle fill="#006ABD" cx="1690.855" cy="705.105" r="4.927"/>
	<circle fill="#006ABD" cx="1711.461" cy="705.105" r="4.928"/>
	<circle fill="#006ABD" cx="1732.067" cy="705.105" r="4.928"/>
	<circle fill="#006ABD" cx="1752.672" cy="705.105" r="4.928"/>
	<circle fill="#006ABD" cx="1773.278" cy="705.105" r="4.928"/>
	<circle fill="#006ABD" cx="1649.644" cy="723.023" r="4.927"/>
	<circle fill="#006ABD" cx="1670.25" cy="723.023" r="4.928"/>
	<circle fill="#006ABD" cx="1690.855" cy="723.023" r="4.927"/>
	<circle fill="#006ABD" cx="1711.461" cy="723.023" r="4.928"/>
	<circle fill="#006ABD" cx="1732.067" cy="723.023" r="4.928"/>
	<circle fill="#006ABD" cx="1752.672" cy="723.023" r="4.928"/>
	<circle fill="#006ABD" cx="1773.278" cy="723.023" r="4.928"/>
	<circle fill="#006ABD" cx="1649.644" cy="740.941" r="4.927"/>
	<circle fill="#006ABD" cx="1670.25" cy="740.941" r="4.928"/>
	<circle fill="#006ABD" cx="1690.855" cy="740.941" r="4.927"/>
	<circle fill="#006ABD" cx="1711.461" cy="740.941" r="4.928"/>
	<circle fill="#006ABD" cx="1732.067" cy="740.941" r="4.928"/>
	<circle fill="#006ABD" cx="1752.672" cy="740.941" r="4.928"/>
	<circle fill="#006ABD" cx="1773.278" cy="740.941" r="4.928"/>
	<circle fill="#006ABD" cx="1649.644" cy="758.859" r="4.927"/>
	<circle fill="#006ABD" cx="1670.25" cy="758.859" r="4.928"/>
	<circle fill="#006ABD" cx="1690.855" cy="758.859" r="4.927"/>
	<circle fill="#006ABD" cx="1711.461" cy="758.859" r="4.928"/>
	<circle fill="#006ABD" cx="1732.067" cy="758.859" r="4.928"/>
	<circle fill="#006ABD" cx="1752.672" cy="758.859" r="4.928"/>
	<circle fill="#006ABD" cx="1773.278" cy="758.859" r="4.928"/>
	<circle fill="#006ABD" cx="1649.644" cy="776.777" r="4.927"/>
	<circle fill="#006ABD" cx="1670.25" cy="776.777" r="4.928"/>
	<circle fill="#006ABD" cx="1690.855" cy="776.777" r="4.927"/>
	<circle fill="#006ABD" cx="1711.461" cy="776.777" r="4.928"/>
	<circle fill="#006ABD" cx="1732.067" cy="776.777" r="4.928"/>
	<circle fill="#006ABD" cx="1752.672" cy="776.777" r="4.928"/>
	<circle fill="#006ABD" cx="1773.278" cy="776.777" r="4.928"/>
	<circle fill="#006ABD" cx="1649.644" cy="794.695" r="4.927"/>
	<circle fill="#006ABD" cx="1670.25" cy="794.695" r="4.928"/>
	<circle fill="#006ABD" cx="1690.855" cy="794.695" r="4.927"/>
	<circle fill="#006ABD" cx="1711.461" cy="794.695" r="4.928"/>
	<circle fill="#006ABD" cx="1732.067" cy="794.695" r="4.928"/>
	<circle fill="#006ABD" cx="1752.672" cy="794.695" r="4.928"/>
	<circle fill="#006ABD" cx="1773.278" cy="794.695" r="4.928"/>
	<circle fill="#006ABD" cx="1649.644" cy="812.613" r="4.927"/>
	<circle fill="#006ABD" cx="1670.25" cy="812.613" r="4.928"/>
	<circle fill="#006ABD" cx="1690.855" cy="812.613" r="4.927"/>
	<circle fill="#006ABD" cx="1711.461" cy="812.613" r="4.928"/>
	<circle fill="#006ABD" cx="1732.067" cy="812.613" r="4.928"/>
	<circle fill="#006ABD" cx="1752.672" cy="812.613" r="4.928"/>
	<circle fill="#006ABD" cx="1773.278" cy="812.613" r="4.928"/>
</g>
<g>
	<path opacity="0.7" fill="#FF6761" enable-background="new    " d="M1323.022,839.885c-5.156,0.088-9.424-4.033-9.514-9.188
		c-0.088-5.156,4.028-9.423,9.188-9.514c5.156-0.088,9.422,4.033,9.514,9.188C1332.297,835.523,1328.176,839.791,1323.022,839.885z
		 M1322.772,825.515c-2.768,0.048-4.979,2.338-4.93,5.103c0.049,2.771,2.34,4.979,5.104,4.934c2.764-0.054,4.979-2.338,4.93-5.104
		C1327.823,827.677,1325.531,825.469,1322.772,825.515z"/>
	<path opacity="0.7" fill="#006ABD" enable-background="new    " d="M761.297,159.634c-5.156,0.093-9.429-4.028-9.519-9.187
		c-0.088-5.156,4.033-9.423,9.188-9.514c5.152-0.088,9.422,4.028,9.514,9.188C770.573,155.276,766.448,159.544,761.297,159.634z
		 M761.047,145.268c-2.771,0.048-4.979,2.338-4.935,5.103c0.05,2.771,2.341,4.979,5.104,4.929c2.764-0.049,4.977-2.338,4.93-5.103
		C766.102,147.43,763.811,145.219,761.047,145.268z"/>
	<path opacity="0.7" fill="#FF6C38" enable-background="new    " d="M1675.684,486.261c-16.021,0.273-29.283-12.529-29.562-28.551
		c-0.272-16.021,12.529-29.28,28.554-29.562c16.021-0.278,29.278,12.529,29.561,28.551
		C1704.512,472.722,1691.7,485.984,1675.684,486.261z M1674.906,441.62c-8.594,0.148-15.465,7.268-15.312,15.859
		c0.146,8.594,7.264,15.463,15.854,15.312c8.601-0.146,15.471-7.261,15.318-15.854
		C1690.615,448.344,1683.502,441.469,1674.906,441.62z"/>
	<path opacity="0.5" fill="#006ABD" enable-background="new    " d="M1478.031,730.095l0.002,16.501h-16.504
		c-4.055,0-7.336,3.282-7.332,7.334c-0.002,4.054,3.281,7.336,7.332,7.333l16.498-0.002l0.004,16.502
		c-0.002,4.054,3.281,7.337,7.338,7.337c4.05-0.001,7.328-3.283,7.332-7.334v-16.504l16.502,0.003
		c4.05,0.001,7.334-3.286,7.332-7.333c0-4.059-3.278-7.336-7.338-7.336l-16.5-0.004v-16.496c0.002-4.057-3.274-7.334-7.334-7.334
		C1481.317,722.76,1478.031,726.05,1478.031,730.095z"/>
	<path fill="#FF6761" d="M1699.889,577.802l-13.961,13.961l-13.963-13.961c-0.978-0.978-2.547-0.978-3.521,0
		c-0.973,0.973-0.973,2.549,0,3.521l13.961,13.96l-13.961,13.962c-0.973,0.977-0.973,2.553,0,3.521c0.975,0.972,2.547,0.971,3.521,0
		l13.963-13.962l13.961,13.963c0.971,0.971,2.549,0.971,3.52-0.001c0.978-0.973,0.978-2.549,0-3.521l-13.961-13.963l13.961-13.959
		c0.978-0.972,0.978-2.548,0-3.521C1702.438,576.827,1700.86,576.828,1699.889,577.802z"/>
	<path opacity="0.3" fill="#FF6761" enable-background="new    " d="M347.262,204.893v14.773l-14.779,0.001
		c-1.024,0-1.858,0.833-1.858,1.863s0.834,1.864,1.858,1.863l14.779-0.001v14.777c0,1.027,0.834,1.861,1.863,1.862
		c1.024-0.001,1.858-0.835,1.858-1.862v-14.776l14.781,0.001c1.027,0,1.863-0.836,1.863-1.864c0-1.03-0.836-1.863-1.865-1.863
		l-14.779-0.001v-14.773c0-1.029-0.834-1.864-1.858-1.863C348.096,203.028,347.262,203.864,347.262,204.893z"/>
</g>
<g>
	
		<linearGradient id="SVGID_1_" gradientUnits="userSpaceOnUse" x1="707.0613" y1="677.0232" x2="895.3191" y2="677.0232" gradientTransform="matrix(1 0 0 -1 124.7241 1466.7964)">
		<stop  offset="0" style="stop-color:#FF6761"/>
		<stop  offset="1" style="stop-color:#FFFFFF"/>
	</linearGradient>
	<path fill="url(#SVGID_1_)" d="M838.278,883.901L838.278,883.901c-3.588,0-6.492-2.904-6.492-6.491v-29.857
		c0-3.585,2.904-6.493,6.488-6.493h23.375c3.582,0,6.492-2.906,6.492-6.491v-23.369c0-3.589,2.908-6.493,6.492-6.493l23.373-0.003
		c3.584,0,6.485-2.899,6.485-6.488v-23.37c0-3.591,2.906-6.491,6.492-6.491h23.371c3.586,0,6.49-2.909,6.49-6.493v-23.369
		c0-3.588,2.908-6.491,6.494-6.496h23.364c3.592,0,6.496-2.901,6.496-6.49v-23.368c0-3.584,2.902-6.49,6.49-6.49h29.863
		c3.586,0,6.49,2.901,6.49,6.49l0,0c0,3.586-2.904,6.49-6.49,6.49h-16.879c-3.588,0-6.49,2.906-6.49,6.49v23.369
		c0,3.589-2.91,6.493-6.494,6.493l-23.373,0.003c-3.584,0-6.492,2.904-6.492,6.493v23.369c0,3.588-2.899,6.486-6.485,6.486h-23.37
		c-3.586,0-6.492,2.909-6.492,6.493v23.369c0,3.589-2.906,6.492-6.492,6.496h-23.373c-3.584,0-6.492,2.904-6.492,6.491v23.371
		c0,3.584-2.897,6.486-6.485,6.486h-23.371c-3.588,0-6.492,2.907-6.492,6.491v16.88C844.77,880.997,841.862,883.901,838.278,883.901
		z"/>
</g>
<g>
	
		<linearGradient id="SVGID_2_" gradientUnits="userSpaceOnUse" x1="892.0955" y1="1307.8318" x2="988.9924" y2="1307.8318" gradientTransform="matrix(1 0 0 -1 124.7241 1466.7964)">
		<stop  offset="0" style="stop-color:#006ABD"/>
		<stop  offset="1" style="stop-color:#FFFFFF"/>
	</linearGradient>
	<path fill="url(#SVGID_2_)" d="M1020.168,207.411L1020.168,207.411c-1.851,0-3.349-1.497-3.349-3.343v-15.367
		c0-1.846,1.498-3.343,3.349-3.343h12.022c1.845,0,3.34-1.495,3.34-3.34V169.99c0-1.845,1.496-3.342,3.341-3.342h12.028
		c1.847,0,3.343-1.495,3.343-3.34V151.28c0-1.845,1.493-3.341,3.34-3.341h12.026c1.849,0,3.343-1.496,3.343-3.342V132.57
		c0-1.846,1.495-3.341,3.346-3.341h12.022c1.85,0,3.343-1.497,3.343-3.342v-12.028c0-1.845,1.494-3.34,3.344-3.34h15.368
		c1.847,0,3.343,1.495,3.343,3.34l0,0c0,1.846-1.496,3.341-3.343,3.341h-8.688c-1.846,0-3.342,1.497-3.342,3.342v12.028
		c0,1.845-1.496,3.34-3.346,3.34h-12.023c-1.85,0-3.34,1.497-3.34,3.342v12.028c0,1.845-1.498,3.341-3.346,3.341h-12.025
		c-1.847,0-3.341,1.494-3.341,3.342v12.027c0,1.846-1.495,3.341-3.345,3.341h-12.023c-1.85,0-3.345,1.497-3.345,3.342v12.028
		c0,1.845-1.494,3.34-3.344,3.34h-12.023c-1.85,0-3.342,1.497-3.342,3.342v8.688C1023.508,205.914,1022.01,207.411,1020.168,207.411
		z"/>
</g>
<g opacity="0.3">
	<path fill="#FF6761" d="M0.592,34.523c-0.17-0.169-0.348-0.322-0.525-0.479v13.229c0.183-0.151,0.355-0.307,0.525-0.479
		C3.981,43.411,3.981,37.914,0.592,34.523z"/>
	<circle fill="#FF6761" cx="20.122" cy="14.992" r="8.682"/>
	<circle fill="#FF6761" cx="16.774" cy="62.984" r="8.681"/>
	<circle fill="#FF6761" cx="42.444" cy="37.314" r="8.681"/>
	<circle fill="#FF6761" cx="68.114" cy="11.644" r="8.681"/>
	<circle fill="#FF6761" cx="13.426" cy="110.974" r="8.681"/>
	<circle fill="#FF6761" cx="39.096" cy="85.305" r="8.681"/>
	<circle fill="#FF6761" cx="64.766" cy="59.635" r="8.681"/>
	<circle fill="#FF6761" cx="90.435" cy="33.966" r="8.681"/>
	<path fill="#FF6761" d="M118.352-0.082h-4.494c-1.426,0.381-2.771,1.121-3.891,2.239c-3.393,3.391-3.391,8.889-0.002,12.278
		c3.393,3.391,8.887,3.391,12.279-0.001c3.389-3.394,3.391-8.891-0.002-12.277C121.125,1.04,119.778,0.299,118.352-0.082z"/>
	<circle fill="#FF6761" cx="10.078" cy="158.965" r="8.681"/>
	<circle fill="#FF6761" cx="35.748" cy="133.296" r="8.682"/>
	<circle fill="#FF6761" cx="61.417" cy="107.627" r="8.681"/>
	<circle fill="#FF6761" cx="87.086" cy="81.957" r="8.681"/>
	<circle fill="#FF6761" cx="112.756" cy="56.287" r="8.681"/>
	<circle fill="#FF6761" cx="138.426" cy="30.618" r="8.681"/>
	<path fill="#FF6761" d="M157.031-0.082c-2.418,3.395-2.11,8.125,0.933,11.168c3.391,3.396,8.887,3.396,12.271,0.001
		c3.043-3.043,3.351-7.773,0.931-11.169H157.031z"/>
	<path fill="#FF6761" d="M38.537,175.148c3.391,3.39,3.391,8.888,0,12.279c-3.394,3.389-8.892,3.387-12.275-0.008
		c-3.389-3.389-3.391-8.886-0.002-12.271C29.651,171.759,35.149,171.76,38.537,175.148z"/>
	<circle fill="#FF6761" cx="58.069" cy="155.617" r="8.682"/>
	<circle fill="#FF6761" cx="83.739" cy="129.948" r="8.681"/>
	<circle fill="#FF6761" cx="109.408" cy="104.279" r="8.682"/>
	<circle fill="#FF6761" cx="135.078" cy="78.609" r="8.681"/>
	<circle fill="#FF6761" cx="160.748" cy="52.939" r="8.681"/>
	<circle fill="#FF6761" cx="186.418" cy="27.269" r="8.681"/>
	<circle fill="#FF6761" cx="54.722" cy="203.609" r="8.68"/>
	<circle fill="#FF6761" cx="80.391" cy="177.939" r="8.681"/>
	<circle fill="#FF6761" cx="106.061" cy="152.269" r="8.681"/>
	<circle fill="#FF6761" cx="131.73" cy="126.6" r="8.682"/>
	<circle fill="#FF6761" cx="157.399" cy="100.93" r="8.681"/>
	<circle fill="#FF6761" cx="183.069" cy="75.26" r="8.681"/>
	<circle fill="#FF6761" cx="208.74" cy="49.59" r="8.68"/>
	<circle fill="#FF6761" cx="77.043" cy="225.93" r="8.681"/>
	<circle fill="#FF6761" cx="102.712" cy="200.26" r="8.682"/>
	<circle fill="#FF6761" cx="128.381" cy="174.591" r="8.681"/>
	<circle fill="#FF6761" cx="154.051" cy="148.922" r="8.681"/>
	<circle fill="#FF6761" cx="179.721" cy="123.252" r="8.681"/>
	<circle fill="#FF6761" cx="205.391" cy="97.582" r="8.682"/>
	<circle fill="#FF6761" cx="231.061" cy="71.911" r="8.681"/>
</g>
<g>
	<path opacity="0.09" fill="#616161" enable-background="new    " d="M1918.766,760.834c0,0-240.496,18.957-206.29-239.547
		c27.669-209.063-271.193-127.817-275.196-297.803C1434.615,110.539,1675.9,118.892,1457.462,0l462.152,0.273L1918.766,760.834z"/>
	<path opacity="0.09" fill="#616161" enable-background="new    " d="M1918.998,689.566c0,0-214.934,0-167.193-187.131
		c50.405-197.619-245.773-123.201-249.021-287.033C1500.633,106.541,1687.168,86.271,1545.113,0l374.507,0.273L1918.998,689.566z"/>
	<g opacity="0.9">
		<path opacity="0.9" fill="#FF6761" enable-background="new    " d="M1920,658.013c0,0-182.483,24.588-142.524-184.572
			c27.485-143.859-138.597-106.328-204.24-209.23C1509.199,163.834,1705.547,87.804,1560.104,1l359.516-0.727L1920,658.013z"/>
	</g>
	<g>
		<path opacity="0.9" fill="#FF6761" enable-background="new    " d="M1919.5,196.463c-33,0.521-59.445,27.348-59.445,60.388
			s26.445,59.869,59.445,60.385V196.463z"/>
		<path opacity="0.9" fill="#FF6761" enable-background="new    " d="M1919.5,104.287V0.273L1560.043,1
			c86.986,51.918,51.741,99.982,23.041,151.706c0.688,3.049,1.357,6.133,1.98,9.271c18.402,92.521,192.052,93.649,230.05,17.979
			C1853.115,104.287,1919.5,104.287,1919.5,104.287z"/>
	</g>
	<path opacity="0.1" fill="#FFFFFF" enable-background="new    " d="M1726.115,0c-16.696,26.266-23.541,57.076-23.541,85.617
		c0,106.636,176.207,140.907,134.565,275.516c-55.521,179.474,82.479,174.388,82.479,174.388V0.273L1726.115,0z"/>
</g>
</svg>
